<?xml version="1.0" encoding="utf-8"?>
<!-- Generator: Adobe Illustrator 22.1.0, SVG Export Plug-In . SVG Version: 6.00 Build 0)  -->
<svg version="1.1" id="Layer_1" xmlns="http://www.w3.org/2000/svg" xmlns:xlink="http://www.w3.org/1999/xlink" x="0px" y="0px"
	 viewBox="0 0 293.7 199" style="enable-background:new 0 0 293.7 199;" xml:space="preserve">
<style type="text/css">
	.st0{fill:none;stroke:#B2B1B1;stroke-width:3;stroke-miterlimit:10;}
	.st1{fill:#B2B1B1;}
	.st2{fill:#FFFFFF;}
	.st3{fill:none;stroke:#FFFFFF;stroke-miterlimit:10;}
</style>
<title>card</title>
<rect x="2" y="41.2" class="st0" width="290.7" height="132.4"/>
<circle class="st1" cx="147.4" cy="107.4" r="33.5"/>
<g>
	<path class="st2" d="M145.4,117.2v-8.9c-3.2-0.8-5.6-2-7.1-3.6s-2.3-3.6-2.3-5.8c0-2.3,0.9-4.3,2.6-5.8c1.7-1.6,4-2.5,6.8-2.7v-2.1
		h3.6v2.1c2.6,0.3,4.7,1,6.3,2.3s2.5,3,3,5.1l-6.3,0.7c-0.4-1.7-1.4-2.8-3-3.4v8.3c4,0.9,6.7,2.1,8.1,3.6c1.4,1.5,2.2,3.3,2.2,5.6
		c0,2.6-0.9,4.7-2.7,6.5s-4.3,2.8-7.5,3.2v4h-3.6v-3.9c-2.9-0.3-5.2-1.2-7-2.7s-2.9-3.7-3.4-6.5l6.5-0.6c0.3,1.1,0.8,2.1,1.5,2.9
		C143.7,116.3,144.5,116.9,145.4,117.2z M145.4,94.9c-1,0.3-1.8,0.8-2.3,1.4c-0.6,0.7-0.9,1.4-0.9,2.3c0,0.8,0.3,1.4,0.8,2.1
		c0.5,0.6,1.3,1.2,2.4,1.6V94.9z M149,117.5c1.2-0.2,2.2-0.7,3-1.5s1.2-1.7,1.2-2.8c0-0.9-0.3-1.8-1-2.5s-1.7-1.2-3.2-1.6V117.5z"/>
</g>
<circle class="st1" cx="225.4" cy="41.2" r="33.5"/>
<g>
	<path class="st2" d="M223.4,51v-8.9c-3.2-0.8-5.6-2-7.1-3.6S214,35,214,32.7s0.9-4.3,2.6-5.8c1.7-1.6,4-2.5,6.8-2.7V22h3.6v2.1
		c2.6,0.3,4.7,1,6.3,2.3s2.5,3,3,5.1l-6.3,0.7c-0.4-1.7-1.4-2.8-3-3.4v8.3c4,0.9,6.7,2.1,8.1,3.6c1.4,1.5,2.2,3.3,2.2,5.6
		c0,2.6-0.9,4.7-2.7,6.5s-4.3,2.8-7.5,3.2v4h-3.6v-3.9c-2.9-0.3-5.2-1.2-7-2.7s-2.9-3.7-3.4-6.5l6.5-0.6c0.3,1.1,0.8,2.1,1.5,2.9
		C221.7,50.1,222.5,50.7,223.4,51z M223.4,28.7c-1,0.3-1.8,0.8-2.3,1.4c-0.6,0.7-0.9,1.4-0.9,2.3c0,0.8,0.3,1.4,0.8,2.1
		c0.5,0.6,1.3,1.2,2.4,1.6V28.7z M227,51.3c1.2-0.2,2.2-0.7,3-1.5s1.2-1.7,1.2-2.8c0-0.9-0.3-1.8-1-2.5s-1.7-1.2-3.2-1.6V51.3z"/>
</g>
<circle class="st3" cx="225.4" cy="41.2" r="28"/>
</svg>
