<?xml version="1.0" encoding="utf-8"?>
<!-- Generator: Adobe Illustrator 22.1.0, SVG Export Plug-In . SVG Version: 6.00 Build 0)  -->
<svg version="1.1" id="Capa_1" xmlns="http://www.w3.org/2000/svg" xmlns:xlink="http://www.w3.org/1999/xlink" x="0px" y="0px"
	 viewBox="0 0 364.5 364.5" style="enable-background:new 0 0 364.5 364.5;" xml:space="preserve">
<style type="text/css">
	.st0{fill:#EF8829;}
	.st1{stroke:#000000;stroke-width:2;stroke-miterlimit:10;}
</style>
<path class="st0" d="M246,235.8c0.1-0.9,0.2-1.8,0.3-2.7C246.2,234,246.1,234.9,246,235.8z"/>
<path class="st1" d="M264.7,122.9c-3.2-9.9-11.6-16.4-23.5-18.4c3.3-5.9,5.5-15,2.6-25c-4.9-17-21.1-17.2-30-17.3
	c3.7-7.2,7.4-18.5,4.8-29.8c-1.8-7.8-7.5-17.9-24.8-22.3C183.5,7.6,172.6,8,167,8.4c-2.7,0.2-4.9,2.3-5.2,5
	c-0.3,2.7,1.3,5.2,3.9,6.1c4,1.3,9.1,4,10.4,9.8c1.6,7-0.7,16.9-33.4,31.3c-11.1,4.9-17.9,11.7-20.2,20.4
	c-2.7,10.2,1.6,20.3,5.8,27.1c-3.5,1-7.5,2.6-11.1,5.1c-7,5-10.8,11.9-10.8,20.1c-0.1,10.2,3.3,17,7.3,21.4c-0.6,1.2-1,2.6-1,4.1
	v6.6c0,12.1,8.2,22.3,19.3,25.3l7.3,27.1c0,0,0,0,0,0l23.7,88.5c0,0,0,0,0,0l10.7,39.9c1.5,5.8,6.6,9.7,12.6,9.7
	c6,0,11-3.9,12.6-9.7l41.7-155.5c11.1-3,19.3-13.2,19.3-25.3v-6.6c0-1.4-0.3-2.8-0.9-4C264.8,149,269.9,138.9,264.7,122.9
	L264.7,122.9z M189.1,343.6c-0.5,1.9-2.1,2.1-2.7,2.1c-0.7,0-2.2-0.2-2.7-2.1l-8-29.7c6.4,2.7,12.9,5.2,19.4,7.6L189.1,343.6z
	 M206.3,279.6c-1.5-0.6-3-1.1-4.5-1.7c-2.6-1-5.6,0.3-6.6,2.9c-1,2.6,0.3,5.6,2.9,6.6c1.8,0.7,3.7,1.4,5.5,2.1l-5.9,22.1
	c-8.6-3.1-17.1-6.6-25.4-10.2l-7.8-28.9c3.7,1.9,7.4,3.7,11.1,5.4c0.7,0.3,1.4,0.5,2.1,0.5c1.9,0,3.8-1.1,4.6-2.9
	c1.2-2.6,0.1-5.6-2.5-6.8c-6.4-3-12.8-6.2-19-9.6l-8.3-30.8c18.5,11.8,38.5,21.7,59.5,29.5L206.3,279.6z M214.8,247.8
	c-23.6-8.9-45.8-20.5-66.1-34.5l-5.8-21.6h13c19.6,14.1,41.3,25.8,64.7,34.7L214.8,247.8z M223.2,216.4c-17.4-6.7-33.9-15-49.2-24.8
	h55.8L223.2,216.4z M249.3,149.8h-85.9c-2.8,0-5.1,2.3-5.1,5.1c0,2.8,2.3,5.1,5.1,5.1h86.4v5.4c0,8.1-6.1,14.9-13.9,15.9
	c0,0,0,0,0,0c-0.4,0-0.7,0.1-1.1,0.1c0,0,0,0,0,0c-0.4,0-0.7,0-1,0H139c-0.3,0-0.7,0-1,0c0,0,0,0,0,0c-0.3,0-0.7-0.1-1.1-0.1
	c0,0,0,0,0,0c-7.8-1-13.9-7.8-13.9-15.9V160h16.6c2.8,0,5.1-2.3,5.1-5.1c0-2.8-2.3-5.1-5.1-5.1h-16.1c-4.5-3.6-6.8-9.2-6.8-16.5
	c0.1-11.6,13.2-15.6,17.8-16.1c0.2,0,0.4-0.1,0.6-0.1c2.1,2.5,4.4,5.2,6.2,6.9c1,0.9,2.2,1.4,3.5,1.4c1.4,0,2.7-0.5,3.7-1.6
	c1.9-2.1,1.8-5.3-0.2-7.2c-2.8-2.6-8-9.3-9.8-11.7c-3.1-4.5-8.2-13.4-6-21.3c1.5-5.5,6.3-10.1,14.4-13.7
	c20.8-9.1,44.1-22.3,39.3-42.9c-0.8-3.4-2.2-6.2-4-8.5c11.1,0.9,24,4.6,26.7,16.2c2.2,9.4-1.7,19-4.6,24.1c-2,3.3-8.4,12.2-15,15.2
	c-2.6,1.2-3.7,4.2-2.5,6.8c0.9,1.9,2.7,2.9,4.6,2.9c0.7,0,1.4-0.1,2.1-0.5c5.4-2.5,10.1-7.1,13.5-11.2c0.1,0,0.3,0.1,0.4,0.1
	c1.9,0.2,4,0.3,6.2,0.3c10.3,0.1,17.8,0.8,20.4,9.9c2.2,7.6,0.1,14.3-2.1,17.9c-1.1,1.4-6.9,9.1-14.5,15.3c-2.2,1.8-2.5,5-0.7,7.2
	c1,1.2,2.5,1.9,3.9,1.9c1.1,0,2.3-0.4,3.2-1.2c3.8-3.1,7.2-6.5,9.8-9.4c0.4,0.1,0.9,0.2,1.4,0.2c7.4,0.3,16.9,2.6,19.9,11.9
	C258.5,136.7,256.6,144.5,249.3,149.8L249.3,149.8z M249.3,149.8"/>
</svg>
