<?xml version="1.0" encoding="utf-8"?>
<!-- Generator: Adobe Illustrator 22.1.0, SVG Export Plug-In . SVG Version: 6.00 Build 0)  -->
<svg version="1.1" id="Capa_1" xmlns="http://www.w3.org/2000/svg" xmlns:xlink="http://www.w3.org/1999/xlink" x="0px" y="0px"
	 viewBox="0 0 364.5 364.5" style="enable-background:new 0 0 364.5 364.5;" xml:space="preserve">
<style type="text/css">
	.st0{fill:#EF8829;}
	.st1{stroke:#000000;stroke-width:3;stroke-miterlimit:10;}
</style>
<path class="st0" d="M246,235.8c0.1-0.9,0.2-1.8,0.3-2.7C246.2,234,246.1,234.9,246,235.8z"/>
<path class="st1" d="M201.4,65c-2-2-2-5.2,0-7.1c2-2,5.2-2,7.1,0l10.4,10.4c6.9,6.9,10.7,16.1,10.7,25.9c0,9.8-3.8,19-10.7,25.9
	l-1.1,1.1c-5,5-7.8,11.7-7.8,18.7v6.5c0,2.8-2.3,5-5,5s-5-2.3-5-5v-6.5c0-9.8,3.8-19,10.7-25.9l1.1-1.1c5-5,7.8-11.7,7.8-18.7
	c0-7.1-2.8-13.7-7.8-18.7L201.4,65z M224.5,151.4c2.8,0,5-2.3,5-5c0-7.1,2.8-13.7,7.8-18.7l1.1-1.1c6.9-6.9,10.7-16.1,10.7-25.9
	V87.6c0-2.8-2.3-5-5-5s-5,2.3-5,5v13.1c0,7.1-2.8,13.7-7.8,18.7l-1.1,1.1c-6.9,6.9-10.7,16.1-10.7,25.9
	C219.5,149.1,221.7,151.4,224.5,151.4z M355,250.9v39.2c0,10-8.1,18.1-18.1,18.1H150c-5.4,26.1-28.5,45.7-56.1,45.7H67.8
	c-31.6,0-57.3-25.7-57.3-57.3v-2c0-6.4,5.2-11.6,11.6-11.6h10.1c2.8,0,5,2.3,5,5c0,2.8-2.3,5-5,5H22c-0.8,0-1.5,0.7-1.5,1.5v2
	c0,26,21.2,47.2,47.2,47.2h26.1c26,0,47.2-21.2,47.2-47.2v-2c0-0.8-0.7-1.5-1.5-1.5H52.7c-2.8,0-5-2.3-5-5c0-2.8,2.3-5,5-5h16.5
	v-32.2c0-5.8,4.3-10.6,9.8-11.4v-14.7c0-3.7,1.8-7.1,4.5-9.2L44.2,86.7c0-0.1,0-0.1,0-0.2L30.7,36c-2.6-9.6,3.2-19.6,12.8-22.2
	c9.6-2.6,19.6,3.2,22.2,12.8l13.5,50.5c0,0,0,0,0,0c0,0,0,0,0,0c0,0.1,0,0.1,0,0.2l26.1,113c1.1-2,2.4-4,3.8-5.8
	c-0.1-0.3-0.1-0.6-0.1-1l-3.6-103.7c0-0.1,0-0.1,0-0.2V27.5c0-10,8.1-18.1,18.1-18.1s18.1,8.1,18.1,18.1v52.3c0,0.1,0,0.1,0,0.2
	l-2.7,79.6c5.5-7.2,14.2-11.6,23.4-11.6h1.6c10.2,0,19.8,5.4,25.1,14.1c1.6,2.7,3.9,4.9,6.5,6.5l10.5,6.3c2.1,1.3,4.2,2.8,6,4.4
	c1.8-1.6,3.9-3.1,6-4.4l10.5-6.3c2.7-1.6,4.9-3.8,6.5-6.5c5.3-8.7,14.9-14.1,25.1-14.1h1.6c10.2,0,19.8,5.4,25.1,14.1
	c1.6,2.7,3.9,4.9,6.5,6.5l10.5,6.3c12,7.2,19.5,20.4,19.5,34.5c0,1.3-0.1,2.7-0.2,4h10.2c6.4,0,11.6,5.2,11.6,11.6v14.7
	C350.7,240.3,355,245.1,355,250.9z M208.7,209.2c0,1.3,0.1,2.7,0.3,4h104.2c0.2-1.3,0.3-2.6,0.3-4c0-10.5-5.6-20.4-14.6-25.8
	l-10.5-6.3c-4.1-2.4-7.5-5.9-10-9.9c-1.7-2.8-4.1-5.1-6.9-6.7l7.5,26.4c0.8,2.7-0.8,5.5-3.5,6.2c-0.5,0.1-0.9,0.2-1.4,0.2
	c-2.2,0-4.2-1.4-4.9-3.7l-8.2-28.7l-8.2,28.7c-0.8,2.7-3.6,4.2-6.2,3.5c-2.7-0.8-4.2-3.6-3.5-6.2l7.5-26.4c-2.8,1.6-5.2,3.9-6.9,6.7
	c-2.5,4-5.9,7.5-10,9.9l-10.5,6.3C214.3,188.8,208.7,198.7,208.7,209.2z M135.9,177.1l-10.5,6.3c-9,5.4-14.6,15.3-14.6,25.8
	c0,1.3,0.1,2.7,0.3,4h87.8c-0.1-1.3-0.2-2.6-0.2-4c0-8.1,2.5-15.9,6.9-22.4c-1.4-1.3-2.9-2.4-4.6-3.4l-10.5-6.3
	c-4.1-2.4-7.5-5.9-10-9.9c-1.7-2.8-4.1-5.1-6.9-6.7l7.5,26.4c0.8,2.7-0.8,5.5-3.5,6.2c-0.5,0.1-0.9,0.2-1.4,0.2
	c-2.2,0-4.2-1.4-4.9-3.7l-8.2-28.7l-8.2,28.7c-0.8,2.7-3.6,4.2-6.2,3.5c-2.7-0.8-4.2-3.6-3.5-6.2l7.5-26.4c-2.8,1.6-5.2,3.9-6.9,6.7
	C143.4,171.2,139.9,174.6,135.9,177.1z M100.3,213.2L70.6,84.7l-15.1,4.1l38,124.4H100.3z M131.4,84.8h-15.7l3.1,90.8
	c0.4-0.3,0.9-0.6,1.3-0.8l8.3-5L131.4,84.8z M115.5,27.5v47.2h16V27.5c0-4.4-3.6-8-8-8S115.5,23,115.5,27.5z M40.4,33.4L52.6,79
	l15.5-4.2L55.9,29.3c-1.1-4.3-5.6-6.8-9.8-5.7C41.8,24.8,39.3,29.2,40.4,33.4z M344.9,250.9c0-0.8-0.7-1.5-1.5-1.5h-58.4
	c-2.8,0-5-2.3-5-5c0-2.8,2.3-5,5-5h50v-14.6c0-0.8-0.7-1.5-1.5-1.5h-243c-0.8,0-1.5,0.7-1.5,1.5v14.6h176.1c2.8,0,5,2.3,5,5
	c0,2.8-2.3,5-5,5H80.8c-0.8,0-1.5,0.7-1.5,1.5v32.2h60.3c6.4,0,11.6,5.2,11.6,11.6v2c0,0.5,0,1,0,1.5h185.7c4.4,0,8-3.6,8-8
	L344.9,250.9L344.9,250.9z"/>
</svg>
