<svg xmlns="http://www.w3.org/2000/svg" viewBox="0 0 1068.51 548.37"><defs><style>.a{fill:#fff;}.b{fill:none;stroke:#fff;stroke-miterlimit:10;stroke-width:7px;}</style></defs><title>helper</title><path class="a" d="M-310.16-520c.31,10.86-3.33,19.9-9.15,28.26a21.25,21.25,0,0,1-8.28,7.08c-9,4.36-18.35,7.25-28.61,5.1-2.24-.47-3.78.34-5.23,2.06-3.77,4.45-6.69,9.6-12,12.72-4,2.34-8.37,3-12.86,3.43a3.53,3.53,0,0,1-2.28-.39c-3.36-2.69-7.14-2-10.94-1.59a25,25,0,0,1-8.05-.58,7.73,7.73,0,0,1-4.82-2.78c-4.7-6.56-11.43-11.09-17.42-16.36-2.7-2.37-4.69-1.46-5.09,2.29-.86,8.16-3.51,15.81-6.43,23.42a62.55,62.55,0,0,1-8.32,15c-10.27,13.63-27.5,16.63-41.67,6.78a109.33,109.33,0,0,1-21.25-19.15c-5.29-6.25-7.82-13.51-9.15-21.26-.49-2.85-1.68-3.91-4.65-3.74-4,.22-8.1.12-12.15,0-1.94,0-3,.76-3.21,2.58-1.72,14.87-10.55,25.45-21.84,34.64-5.88,4.79-11.43,10-19.27,11.63-12.24,2.61-22.5-.41-30.22-10.28-8.82-11.27-13.1-24.34-15.54-38.1-.32-1.78.15-4.09-2-4.84s-3.53,1.08-4.88,2.34c-5.51,5.12-11.83,9.42-16.33,15.59-1.75,2.39-4.92,2.48-7.71,2.76a28.87,28.87,0,0,1-5.73,0A19.47,19.47,0,0,0-674.9-462c-4.59,1.81-9.54.12-13.9-2.06a22.66,22.66,0,0,1-9-7.78c-.48-.74-1.13-1.37-1.6-2.12-2.68-4.19-5.76-6.38-11.54-5.28-8.84,1.67-17.07-1.56-24.95-5.29-4.73-2.24-7.92-6-10.6-10.31-7.47-12-9.68-25.19-5.22-38.27,6-17.48,19.18-22.58,37.59-14a8.11,8.11,0,0,1,3.13,2.94c2.82,4.21,1.33,7.75-3.72,7.51-5.7-.27-10.07,5.82-9.35,10.6.75,5,6.59,9.11,12,8.31a3.88,3.88,0,0,0,.66-.14c9.75-2,10-2.17,11.38-12,.47-3.25.95-6.51,1.18-9.78.59-8.19,5.67-13.06,14.19-13.51A34.47,34.47,0,0,1-672-551.53c2.5.81,3.37,0,3.64-2.53,1.92-18.4,6.89-35.64,17.21-51.63,12.68-19.64,28.37-35.78,49.19-47.17,8.24-4.51,16.35-9.2,24.77-13.41s17.71-5.84,26.17-9.55c8.73-3.84,17.64-3.66,26.72-3.55a8,8,0,0,1,2.94.53c7,2.9,14.23,4.82,21.37,7.13,13.79,4.46,25.86,12.19,38.5,18.88a120.71,120.71,0,0,1,40.89,35.23c12,16.21,22.37,33.51,24,54.28.25,3.16,1.05,6.27,1.3,9.43.2,2.42,1.18,3.13,3.48,2.36a34.12,34.12,0,0,1,12.29-1.64,18.5,18.5,0,0,1,11.09,4.23,8.71,8.71,0,0,1,3.47,6.8,163.22,163.22,0,0,0,2,17.62,5,5,0,0,0,3.74,4.54c4.26,1.27,8.39,3.32,13.06,1.46s7.3-6,6.43-10.38a9.36,9.36,0,0,0-9.42-7.77c-4.73.22-6.37-3-3.87-7,3-4.72,8.07-5.52,13-6.73,16.33-4,26.57,8.48,29.05,20.82A36.15,36.15,0,0,1-310.16-520Zm-333,32.66c3.51-4.33,8.35-5.09,13.39-5.53,4-.36,5.89.74,6.92,4.55a35.73,35.73,0,0,1,.81,3.86c1.8,12.16,5.39,23.74,11.91,34.33.55.89.78,2.45,2,2.35s1.26-1.65,1.72-2.6c4.91-10.23,9.85-20.44,14.63-30.73,1.19-2.56,2.57-4,5.64-3.05a18.2,18.2,0,0,0,3.69.29c2.2.16,3,1,1.92,3.19-1.47,2.84-2.76,5.76-4.13,8.64q-7.37,15.33-14.65,30.72c-.44.91-1.83,2.32.39,2.77,5.87,1.16,11.27,3,17.43-1.16a80,80,0,0,0,26.34-28.94c2.87-5.33,1.56-10.43-.84-15.44a3.77,3.77,0,0,0-3.19-2.18c-1.38,0-1.48,1.49-1.92,2.41q-8,16.68-15.88,33.42c-3.51,7.47-3.45,7.43-11.9,7-2.25-.11-2.07-.78-1.27-2.36q9.63-18.83,19.17-37.71c.89-1.75,2.75-3.92,2.26-5.23-.67-1.79-3.6-.9-5.52-1.15-12.34-1.61-24.68-3.42-37.22-2.43-3.28.26-6.3-.65-8.36-3.37-1.43-1.88-2.67-3.93-1.23-6.36s3.74-2.48,6.2-2.23c6.15.63,12.29,1.21,18.43,1.84,12.85,1.33,25.71,2.55,38.53,4.1,4.27.51,9.5.25,12.22,3.83,3.73,4.9,8.29,5.72,13.8,5.22a27,27,0,0,1,5.39,0,5.61,5.61,0,0,0,5.74-2.59c2.39-3.61,6-5.14,10.15-5.78,3.55-.54,7.1-1.11,10.67-1.5q17.73-2,35.51-3.75c5.47-.55,11-1,16.43-1.48,2.13-.18,4.06.23,5.28,2.16,1.35,2.12.53,4-.7,5.82a8.93,8.93,0,0,1-9,3.95c-7.24-.94-14.34.29-21.5.75-2.82.18-2.49,1.15-1.59,3,4.52,9.32,9,18.64,13.37,28,3.35,7.24,3.84,5.24-2.37,10.64-2.1,1.83-3.14,1.71-4.35-.86-5.47-11.67-11.24-23.2-16.58-34.92-1.51-3.29-2.91-4.75-6.93-4-3.12.58-3,1-1.75,3.52q11.36,21.84,22.35,43.88c2.43,4.84,5.89,5.77,10.55,2.54a14.88,14.88,0,0,0,3.95-4,146.51,146.51,0,0,0,9-16.51c4.19-8.79,5.3-18.3,7.38-27.6,1-4.24,2.85-5.4,7.24-5,5.07.41,9.85,1.37,13.3,5.69-2.21-9-3.72-17.89-5.36-26.71-3.68-19.93-8.14-39.74-9.84-60a7.63,7.63,0,0,0-3.72-6.27c-2.64-1.66-5.09-3.6-7.67-5.36-21.38-14.6-43.74-14.38-66.69-4-3.4,1.53-7.06.09-7.44-3.34-.33-2.89,1.45-5.12,5-6,7.53-1.82,15-3.67,22.63-5.27a47.14,47.14,0,0,1,15.11-1.2c14.34,1.59,27.79,5.4,38.56,15.49.49.45,1,.84,1.54,1.27a2.68,2.68,0,0,0,3.32.39c3.86-1.87,6.16-.42,6.48,3.86.29,3.82.43,7.66.91,11.46,3.68,29.36,8.62,58.53,13.86,87.66,1.11,6.17,4.67,9.59,10.56,12.25-1.57-3.5-1.38-6.76-1.3-10,.31-12.56,14.69-21.36,26.54-16.26A6.57,6.57,0,0,1-374-495c2.7,8.33-1.85,16.47-10.49,18.8-1.7.46-3.17.28-4.21-1.16s-.33-2.8.71-3.87c1.31-1.34,2.86-2.45,4.23-3.75,1.89-1.79,3.25-4,1.77-6.44-1.62-2.67-4.37-2.25-6.94-1.36-5.84,2-8.34,7.4-6.54,14,1.11,4.07,9.35,9.81,13.19,9.19,4.71-.77,14.51-9.35,15.58-13.66,1.24-5,1.67-5.21,7-4.44,4.1.6,8.28,1.6,12.38.93,14.07-2.27,24.35-9.14,28.62-23.11,1.3-4.26,1.54-8.61,2-13,.85-7.6-2.94-13.13-8.62-17.55-3.76-2.93-8.24-3.7-13.31-2.26.76.89,1.34,1.52,1.87,2.2,4.75,6.1,6.74,12.79,3.2,20-3.77,7.65-10,11.93-19.15,11.31a28.76,28.76,0,0,1-10.88-3.2,10.78,10.78,0,0,1-6.48-9.26c-.61-5.65-1.67-11.26-2.47-16.9a6,6,0,0,0-4-4.88c-5.16-2.3-10.15-1-15,.72-1.84.66-2.51,2.4-2.2,4.36.46,2.92.8,5.86,1.36,8.77a10.44,10.44,0,0,0,2.52,5.66c1.65,1.65,3.7,1.89,5.43.36,1.94-1.72.42-3.16-1-4.36a15.21,15.21,0,0,0-2.47-1.69c-2.4-1.34-2.79-3.25-1.87-5.62,1.07-2.76,3.23-3.44,7-2.17,5.74,1.91,8.42,6.69,7.73,13.74-.53,5.41-3.87,9.11-8.83,9.77-6.93.92-13-2-15-7.42C-401-527-402-533-403.16-538.9c-1.62-7.94-1.57-16.14-4.3-23.91-7.93-22.5-22.45-40.24-41.38-54.87-13.58-10.5-29.28-17-45.12-23.36a97.25,97.25,0,0,0-61.79-4.3c-20.6,5.3-40.08,13.73-57.3,26.4-16.53,12.15-29.93,26.84-38.71,45.27-3.41,7.18-6.26,14.5-7.09,22.51a156.85,156.85,0,0,1-5.3,27.74c-1.89,6.48-5.87,9.39-12.76,9.61-6.47.2-10.68-2.88-11.72-8.55-1.34-7.34,1.54-13,7.63-15a10.55,10.55,0,0,1,2-.46c2.35-.34,4.2.14,5,2.66s.47,4.24-1.9,5.62a14.37,14.37,0,0,0-3.42,2.63c-1.59,1.73-.86,3.67,1.46,4.16a4,4,0,0,0,4.61-1.89c1.63-2.51,1.85-5.31,2.2-8.16,1.25-10.13.82-10.72-9.65-11.83a9.54,9.54,0,0,0-1.69,0c-5.53.32-8.39,2.8-9.21,8.1-.76,4.87-1.68,9.73-2.07,14.64-.4,5.12-3.15,8.22-7.69,10.25a24.31,24.31,0,0,1-6.69,2.19c-6.94.83-13.37.3-18.43-5.46-5.46-6.19-7-12.82-3.74-20.4a25.78,25.78,0,0,1,4.93-7,6.49,6.49,0,0,0-4.35-1c-8.62.38-17.26,8.76-17.45,17.21-.18,8.09,1.12,15.87,5.11,23.19,5.67,10.41,19.57,17.62,31.55,16,3.11-.42,6.25-.68,9.38-1,1.72-.15,3.63.35,3.63,2.12,0,4.47,3.43,6.83,5.89,9.62,7.13,8.12,11.05,8.21,19.26,2.75,4.41-2.93,4.92-7.16,4.35-11.64-.5-4-3.28-6.37-7-7.76-2.44-.92-5.08-1.25-6.72,1.17s-.29,4.81,1.68,6.69c1.44,1.38,3,2.6,4.42,4a2.61,2.61,0,0,1,.42,3.6,3.43,3.43,0,0,1-3.88,1.22c-9-2.16-13.82-11.1-10.49-19.54a6,6,0,0,1,3-3.38c11.19-5.61,26.74,3.16,27.13,15.39.11,3.45.3,6.91-1.13,10.54,5.94-2.67,10.08-6.12,10.42-12.59a39.18,39.18,0,0,1,1-5.16c4.15-22.87,8.12-45.75,11.13-68.79,1.09-8.36,2.41-16.69,2.76-25.14.15-3.45,2.78-5.49,5.26-4,2.74,1.65,4.23.53,6.07-1.14,11.88-10.84,26.45-15.26,42.26-15.44,12.13-.15,23.57,4.33,35.28,6.91a4.31,4.31,0,0,1,1.49.73,5.14,5.14,0,0,1,1.5,6.74,4.54,4.54,0,0,1-6.21,1.6l-.26-.17c-4.07-2.91-8.81-3.81-13.5-4.84-11-2.43-22.06-3.6-33.33-.56-10.36,2.79-18.92,8.41-27.37,14.48a8.85,8.85,0,0,0-4.16,7.06c-.92,14.36-4.1,28.4-6.56,42.53q-3.89,21.85-8.54,43.61Zm219.83-118.31c-5.95-10.77-14.43-21.07-24.78-28.45-22.36-15.94-46.1-29.51-73.4-35.78a49.91,49.91,0,0,0-20.76.08,130.61,130.61,0,0,0-16.76,5C-578-658.31-594.9-648-611.32-637a93.51,93.51,0,0,0-29.15,31.33,28.94,28.94,0,0,0,3.25-3.11,101.21,101.21,0,0,1,13.36-12.49,192.54,192.54,0,0,1,56.12-28.86c17.1-5.55,34.51-7.61,52.48-4.78,14.95,2.34,28.85,7.71,42.4,13.82,16.5,7.44,31.69,17,44.35,30,1.73,1.77,3.42,3.66,5.14,5.51ZM-481.8-440.08c-.78-1.77-1.24-2.86-1.75-3.93q-9.42-19.83-18.88-39.61c-.49-1-.52-2.78-2-2.72a4.1,4.1,0,0,0-3.36,2.49c-2.32,4.93-3.53,10-.72,15.14,6.2,11.48,14.06,21.57,26.67,28.63Z" transform="translate(754.01 715.02)"/><path class="a" d="M-594.66-221.39c-3-16.18-1.87-32.57-3.33-48.8-.74-8.23.34-16.37,1.21-24.56,1-9.49,3.09-18.8,4.12-28.27a13.81,13.81,0,0,1,.54-2.57c4.36-14.83,8.78-29.65,14.32-44.11,3.53-9.2,9.4-17.19,15.31-25.09,1.47-2,3.41-2.61,5.57-1.24,2.38,1.52,1.31,3.38.21,5.15-5.45,8.68-11.76,16.9-15.32,26.61a357.56,357.56,0,0,0-16.19,58.65c-1.08,5.9-.59,6.38,4.74,9.26a61.37,61.37,0,0,0,22.72,6.8c2.24.25,3-.12,3.14-2.37.35-9.19.83-18.38,1.25-27.57q.38-8,.71-16.09a6.78,6.78,0,0,1,1.79-4.51c2-2.13,1.73-4.25.49-6.65-3-5.68-5.78-11.44-5.7-18,0-1.7-.44-3.82,1.91-4.39s3.64,1.2,4.51,3.08c1.76,3.8,2.65,7.9,4.46,11.7,2.66,5.61,6.32,9.15,13.3,8.1a38.88,38.88,0,0,1,8.76,0c4,.32,6.62-1.57,8.63-4.63a47.51,47.51,0,0,0,5.07-11.43,32.45,32.45,0,0,1,2.2-5.14,3.15,3.15,0,0,1,3.68-1.71c1.84.41,1.86,1.93,1.94,3.4.37,6.5-2.13,12.28-5.14,17.82-1.72,3.18-2.19,5.87.49,8.68a5.4,5.4,0,0,1,1.23,3.68q.68,16.74,1.38,33.49c.15,3.5.47,7,.59,10.49.07,1.9.79,2.29,2.74,2.13,9.27-.76,17.71-3.83,25.77-8.19,2-1.1,2.48-2.58,2.35-4.6-.43-6.6-2.48-12.91-3.74-19.36-2.94-15.12-8.1-29.63-13.35-44.09-3.3-9.07-9.36-16.71-14.47-24.83-1-1.58-2.36-3.15-.59-5s4.44-1.53,6.13.73c7.49,10.05,14.5,20.37,18,32.52,1.49,5.17,3.59,10.16,5.22,15.27,3.88,12.21,7.51,24.51,9.05,37.26,1.34,11.08,4,22.1,3.34,33.29-1,16.93-.34,34-3.14,50.79a21.92,21.92,0,0,0,0,3.8c2.06-.36,2.38-2,3-3.28,3.59-7.89,5.32-16.27,6.55-24.75A340,340,0,0,0-455.7-302a110.92,110.92,0,0,0-5.43-33.67c-3.74-11.37-6.11-23.11-10.69-34.26-3.19-7.76-6.21-15.49-11.1-22.43-1.84-2.61-1.37-4.51,1-5.8s4.32-.53,5.81,2c6.41,11,11.29,22.64,15.71,34.5,2.44,6.51,3.53,13.36,5.5,20,.33,1.12.72,2.23,1.26,3.91a71.32,71.32,0,0,0,12.73-18.64c6.36-13.54,9.65-27.94,12.9-42.43,4-18,6.36-36.26,9.38-54.41a25,25,0,0,1,1.12-4.45,2.41,2.41,0,0,1,2.9-1.71,2.29,2.29,0,0,1,1.82,2.46,36.26,36.26,0,0,1-.59,7.85c-.18.9-.64,2.12.37,2.73s1.65-.41,2.4-.83c2.92-1.64,5.88-3.23,8.72-5,13.65-8.59,24,2.58,25.34,12.74,1.43,11.11-1.95,21.67-5.6,32.06a11.29,11.29,0,0,1-3.94,4.84,170.71,170.71,0,0,0-13.91,12c-2.36,2.29-3.74,4.8-2.83,8.25a10.91,10.91,0,0,1,.06,4.89c-2.16,10.36-7.06,12.63-17.33,10a3.11,3.11,0,0,1-2.6-3.08c.06-1.61,1.66-1.85,3-2.14.66-.14,1.34-.14,2-.25,5.82-.9,8.62-4.28,7.51-10.08-.88-4.65.44-8.07,3.89-11.15,3.72-3.34,6.95-7.2,11-10.15,6.14-4.42,7.76-10.93,9.14-17.71,1.25-6.19,2-12.35.62-18.58-1.49-6.9-5.69-8.75-12.12-5.45-3.91,2-6.81,5.61-10.78,7.29-6,2.52-7.31,6.89-8,12.62a372.5,372.5,0,0,1-8.85,49.15c-4.13,15.84-10.61,30.75-21.89,43.25-.51.57-1.05,1.44-1.68,1.54-4.08.66-3,3.17-2.36,5.64a89.56,89.56,0,0,1,2.52,19.84c.15,8.87,1.22,17.74.59,26.6-1.25,17.73-3.71,35.3-8.53,52.48a31.52,31.52,0,0,1-4,9.38,11.24,11.24,0,0,1-15.47,2.7,4.56,4.56,0,0,1-1.82-5c3.07-16.66,3.79-33.49,4-50.37.08-5.9,1.1-11.77.11-17.7-.42-2.56-1.28-2.47-3.24-1.39-7.82,4.31-16.07,7.38-25.15,7.86-2.69.15-3.88,1.35-4,4.17-.29,11.27-.15,6.41-1,17.65-1.57,21.62-3.26,34.45-6.62,55.88-1.29,8.19-2.74,16.42-4.6,24.52-1,4.21-1.61,8.9-6.39,11.35a14.76,14.76,0,0,1-14.77-.2,8,8,0,0,1-3.36-3.49c-3.18-6-3.34-12.68-4.7-19.09a289.62,289.62,0,0,1-5.14-34.41c-.82-9.16-2.42-16.56-3.25-25.72-1.51-16.82-.92-10.44-1.77-27.28a3,3,0,0,0-2.85-3.15h-.24a62.65,62.65,0,0,1-26.72-8.44c-1.66-.94-2-.26-2.36,1.29a45.72,45.72,0,0,0-.48,11.8c.64,12.8.79,25.62,1.95,38.39a140,140,0,0,0,2.4,17.16c1,4.38-.17,6.1-4.46,7.34-6.72,1.94-11.34-.3-14.26-6.94-3.12-7.11-4.72-14.64-6.07-22.19-2.94-16.52-5.79-33.1-4.78-50,.7-11.67,0-23.5,3.49-34.9.59-1.89.48-3.17-2-3.48-1.14-.15-1.81-1.2-2.55-2C-629.35-348.23-636-365.3-640-383.52c-3.58-16.07-5.92-32.33-8.24-48.6-.23-1.58-.7-3.07-2.3-3.8-4.74-2.17-8.59-5.58-12.82-8.48-3.19-2.18-6.68-4.41-10.59-2.64-4.07,1.84-4.45,6.08-4.85,9.91-.87,8.24,1.29,16.11,3.44,23.95,1.07,3.87,4.12,6.49,7.15,9,4.33,3.53,8.15,7.54,12.12,11.43a8.56,8.56,0,0,1,2.7,8.38,11.43,11.43,0,0,0,.06,4.87c1,4.9,2.15,6,7.27,6.65,2,.24,4.77-.11,5,2.27.23,2.92-2.7,3.33-5.06,3.73-8.87,1.48-13.39-1-14.88-11.77a1.47,1.47,0,0,1,0-.66c2.06-7.47-2.45-11.86-7.76-16-3.08-2.38-6-5-9-7.41a15.84,15.84,0,0,1-5.4-8.89c-1.94-7.44-3.92-14.88-4.36-22.57-.4-7.22,2.08-13.43,7.81-18.08,4.88-4,10.4-3.81,15.82-1.12,3.81,1.89,7.4,4.19,11.1,6.27.65.37,1.33,1.14,2.11.71,1-.53.5-1.59.44-2.41-.16-2.29-.49-4.57-.62-6.86-.1-1.66-.19-3.61,2.13-3.79,2.13-.17,2.8,1.55,3.08,3.26,1.13,6.81,2.2,13.62,3.31,20.44,4.14,25.3,8,50.67,17.55,74.78a82.11,82.11,0,0,0,12.19,20.37c.65.83,1.21,2.27,2.38,2.07s1.13-1.73,1.35-2.75c3-14.25,8.16-27.78,14-41.12,2.16-5,5.57-9.25,7.67-14.25,1.08-2.54,3.43-2.64,5.71-1.4s2.5,3.06,1.18,5c-10.32,15.28-14.93,32.68-20,50-3.21,11-6.33,21.91-7.23,33.35a182.41,182.41,0,0,0-.18,22.67,338.28,338.28,0,0,0,3.18,35.66c1.29,8.47,2.84,16.86,6.17,24.84C-597.66-224.56-597-222.55-594.66-221.39Zm80.91-60.35c0-15.24.26-28.72-.77-42.17a40.4,40.4,0,0,0-2.38-12.21c-.84-2.08-1.76-2.81-4.21-2.48a92,92,0,0,1-20.85.15c-3.14-.3-4.1.55-5.07,3-2.88,7.37-2.43,15.14-2.68,22.72-.49,15-.2,30-.2,45,0,4.93.66,8.72,1.08,13.62,1.63,18.86,1,16.42,4.33,40.33,3.77,26.25,5.65,21.83,9.66,36.3.39,1.42,1.23,2.66,3,2.63s2.59-1.28,3-2.71c2.62-9.85,5.84-19.57,7.6-29.62,3.76-21.5,3.46-21.57,5.74-43.26C-514.24-262.44-514-271.36-513.75-281.74Z" transform="translate(754.01 715.02)"/><path class="a" d="M-593.17-700.2c4.57.53,9.43.86,14,2.27a9.35,9.35,0,0,0,9.85-2.27A71.8,71.8,0,0,1-556-709.75c4.33-2.44,8.84-4.44,13.86-4.83a123.38,123.38,0,0,1,20.88,0c7.64.71,13.94,4.69,20,8.92a43.48,43.48,0,0,1,6,4.75c3.35,3.36,6.9,3.91,11.6,2.71,18.21-4.63,33.5.3,45.42,14.49,3.18,3.79,6.91,6.28,11.25,8.74a83.8,83.8,0,0,1,17.69,14.15c15.48,15.61,28,33.33,36.62,53.23a409.52,409.52,0,0,1,20,56.51c.09.32.21.63.29,1,.7,3-.31,5-2.93,5.7-3,.77-4.48-.61-5.4-3.38q-6.17-18.62-12.58-37.14c-5.83-16.78-13.19-32.89-23.35-47.63-9.39-13.72-21.67-24.72-35.67-34.09a36.56,36.56,0,0,0-5.38-2.7,7.91,7.91,0,0,1-4.55-4.6c-2.5-7.13-8.21-11.32-14.55-14.84-10.47-5.82-21-4.24-31.29.41-3.23,1.45-5.62.74-7.74-1.75a62,62,0,0,0-14.28-12c-5.48-3.47-11.33-5.56-18.09-5.27-7.71.34-15.54-.7-22.61,3.62-5.74,3.51-11.27,7.23-15.82,12.19s-4.9,4.61-11.17,2.13c-11.5-4.55-22.84-4.43-33.22,3.08-4.61,3.33-9,7-10.65,12.75-.65,2.26-2.68,3.35-4.73,4.41-11,5.71-20.46,13.49-28.94,22.32-19.43,20.22-29.57,45.27-38.36,71-3.16,9.25-6.23,18.53-9.34,27.8-1.2,3.56-2.6,4.5-5.47,3.75s-3.7-2.91-2.74-6.36c4.11-14.71,9.63-29,14.7-43.36,8.53-24.28,22.32-45.31,39.7-64.32,6-6.52,12.63-12.64,20.33-16.61,5.74-3,9.33-7.13,13.27-11.48C-616.42-694-603.09-700.09-593.17-700.2Z" transform="translate(754.01 715.02)"/><path class="a" d="M-507.06-427.77c.27-2.18-.44-4.08-.6-6s0-4.24,2.48-4.77,2.89,1.59,3.55,3.21a44.45,44.45,0,0,1,2.86,11.13c.83,6.76-3.3,11.52-10.34,11.75-3.33.11-5.92,1-7.95,3.9-5.58,8-14.56,9.64-23.22,5.86-3-1.3-4.87-3.85-6.74-6.29a7.34,7.34,0,0,0-5.91-3.08c-9.58-.65-12.89-4.84-11.64-14a44.44,44.44,0,0,1,2.73-9.8c.58-1.54,1.41-2.9,3.38-2.51s2.4,1.92,2.42,3.51c0,2.84-.86,5.6-.67,8.49.35,5.64,1,6.39,6.75,6.39a16.72,16.72,0,0,1,9.4,3.11c9.78,6.42,8.8,6,17.57-.1a15.42,15.42,0,0,1,9.4-3.06c5.41.12,6.21-.64,6.53-5.86C-507-426.67-507.06-427.29-507.06-427.77Z" transform="translate(754.01 715.02)"/><path class="a" d="M-530.95-394.46c3.73.2,8.23-.42,12.68.64a11,11,0,0,1,7.09,4.56c2,2.92,4.19,5.7,6.27,8.55,1.35,1.85,2.77,3.86.2,5.69-2.34,1.66-3.91.06-5.34-1.67-2-2.48-4.15-4.89-6.19-7.37a9,9,0,0,0-7.3-3.43h-16.18a9.4,9.4,0,0,0-7.64,3.49q-3.35,3.92-6.67,7.84c-1.45,1.71-3.18,2.67-5.2,1s-1.2-3.3,0-4.95c2.41-3.3,4.75-6.65,7.26-9.87,2.79-3.58,7-4.19,11.16-4.46C-537.77-394.61-534.73-394.46-530.95-394.46Z" transform="translate(754.01 715.02)"/><path class="a" d="M-540.6-505.86c0,6.29-.75,6.85-6.48,5a37.3,37.3,0,0,1-5.19-2.35c-20.66-10.67-41.73-20.51-63.32-29.27a13.78,13.78,0,0,1-3-1.56c-2.11-1.53-2.2-3.75-1.65-6s2.29-2.85,4.3-3.11a6.54,6.54,0,0,1,4.24.74c10.92,6.15,22.93,10,34.13,15.63,9.36,4.7,19.25,8.38,28.9,12.53,1.23.53,2.42,1.15,3.64,1.71C-541.87-511.07-539.67-509.11-540.6-505.86Z" transform="translate(754.01 715.02)"/><path class="a" d="M-522.64-505.78c-1.18-3.72,1.44-5.79,4.88-7.28q12.78-5.55,25.59-11a36.09,36.09,0,0,0,3.42-1.4c11.07-6.36,23.57-9.78,34.69-16a15.59,15.59,0,0,1,3.06-1.38c3.21-1,6.61.18,7.5,2.61,1.07,2.93-.25,5.87-3.51,7.2q-14.49,5.91-28.66,12.43c-12.7,5.87-25.35,11.84-37.74,18.32A23.28,23.28,0,0,1-516.5-501C-522-499.13-522.64-499.56-522.64-505.78Z" transform="translate(754.01 715.02)"/><path class="b" d="M-330.89-342.3H294.24c9.25,0,16.76-8.14,16.76-18.19V-612.2c0-10-7.51-18.19-16.76-18.19H-256.44c-9.25,0-16.76,8.14-16.76,18.19v176.45a24,24,0,0,1-6.28,16.35l-57.28,61.62C-342-352.09-338.34-342.3-330.89-342.3Z" transform="translate(754.01 715.02)"/></svg>