<svg xmlns="http://www.w3.org/2000/svg" viewBox="0 0 268.14 535.6"><defs><style>.a{fill:#fff;}.b{fill:#bcbec0;}.c{fill:#d1d3d4;}</style></defs><title>iphonex</title><path class="a" d="M-238.74-219.95a34.61,34.61,0,0,1,34.57,34.57V272.88a34.61,34.61,0,0,1-34.57,34.57H-425.12a34.61,34.61,0,0,1-34.57-34.57V-185.38a34.61,34.61,0,0,1,34.57-34.57h186.38m0-3H-425.12a37.65,37.65,0,0,0-37.6,37.61V272.88a37.64,37.64,0,0,0,37.6,37.6h186.38a37.64,37.64,0,0,0,37.6-37.6V-185.38A37.65,37.65,0,0,0-238.74-223" transform="translate(465.93 224.05)"/><path class="b" d="M-238.74-221.92a36.64,36.64,0,0,1,36.54,36.54V272.88a36.64,36.64,0,0,1-36.54,36.54H-425.12a36.65,36.65,0,0,1-36.54-36.54V-185.38a36.65,36.65,0,0,1,36.54-36.54h186.38m0-2.13H-425.12a38.71,38.71,0,0,0-38.66,38.67V272.88a38.71,38.71,0,0,0,38.66,38.67h186.38a38.72,38.72,0,0,0,38.67-38.67V-185.38A38.72,38.72,0,0,0-238.74-224" transform="translate(465.93 224.05)"/><polygon class="b" points="4.27 149.51 0 148.05 0 110.36 4.27 108.9 4.27 149.51"/><polygon class="b" points="4.27 92.62 0 91.16 0 72.48 4.27 71.02 4.27 92.62"/><polygon class="b" points="4.27 198.97 0 197.51 0 159.83 4.27 158.37 4.27 198.97"/><polygon class="b" points="263.87 122.55 268.14 124.02 268.14 183.63 263.87 185.09 263.87 122.55"/><path class="a" d="M-425.11,309a36.13,36.13,0,0,1-36.09-36.09V-185.38a36.13,36.13,0,0,1,36.09-36.09h186.37a36.13,36.13,0,0,1,36.09,36.09V272.88A36.13,36.13,0,0,1-238.74,309Zm41.05-499.74A12.46,12.46,0,0,1-396.47-203v-1c0-.08,0-.15,0-.23A5.57,5.57,0,0,0-402-209.5h-24.63a22,22,0,0,0-22,22V275.21a22,22,0,0,0,22,22h189.93a22,22,0,0,0,22-22V-187.52a22,22,0,0,0-22-22h-24.62a5.57,5.57,0,0,0-5.55,5.33,1.79,1.79,0,0,0,0,.23v1a12.45,12.45,0,0,1-12.41,12.2Z" transform="translate(465.93 224.05)"/><path class="c" d="M-318-202.63h-28.31a1.85,1.85,0,0,1-1.84-1.84,1.85,1.85,0,0,1,1.84-1.84H-318a1.85,1.85,0,0,1,1.84,1.84,1.85,1.85,0,0,1-1.84,1.84" transform="translate(465.93 224.05)"/><path class="c" d="M-308.07-204.47a4.5,4.5,0,0,1,4.5-4.5,4.51,4.51,0,0,1,4.5,4.5,4.51,4.51,0,0,1-4.5,4.5,4.5,4.5,0,0,1-4.5-4.5" transform="translate(465.93 224.05)"/><path class="a" d="M-424.85-192.32a1.05,1.05,0,0,0,1.11.88c1,0,1.45-1.1,1.44-2.51h-.06a1.61,1.61,0,0,1-1.63,1,2.05,2.05,0,0,1-2.05-2.23,2.24,2.24,0,0,1,2.32-2.33c1.54,0,2.52,1,2.52,3.42s-.94,3.62-2.56,3.62a2,2,0,0,1-2.2-1.84Zm1.17-4.24a1.23,1.23,0,0,0-1.24,1.34,1.21,1.21,0,0,0,1.22,1.34,1.28,1.28,0,0,0,1.26-1.32,1.22,1.22,0,0,0-1.24-1.36" transform="translate(465.93 224.05)"/><path class="a" d="M-419.53-195.35a.7.7,0,0,1,.69.71.71.71,0,0,1-.69.72.72.72,0,0,1-.7-.72.71.71,0,0,1,.7-.71m0,3.42a.71.71,0,0,1,.69.72.7.7,0,0,1-.69.71.71.71,0,0,1-.7-.71.72.72,0,0,1,.7-.72" transform="translate(465.93 224.05)"/><path class="a" d="M-413.53-197.4v4.5h.82v1h-.82v1.31h-1.1v-1.31h-3.19v-1c.78-1.51,1.7-3.05,2.63-4.51Zm-1.1,4.5v-3.56h0c-.71,1.12-1.45,2.37-2.07,3.55h2.11Z" transform="translate(465.93 224.05)"/><path class="a" d="M-410.41-190.6v-5.63h0c-.24.13-1.22.78-1.53,1v-1.13c.34-.25,1.26-.85,1.6-1h1.12v6.8Z" transform="translate(465.93 224.05)"/><path class="a" d="M-247.66-190.7a.16.16,0,0,1-.11-.05l-.91-.94a.14.14,0,0,1,0-.21,1.43,1.43,0,0,1,1-.43,1.4,1.4,0,0,1,1,.43.15.15,0,0,1,0,.21l-.91.94a.16.16,0,0,1-.11.05m1.93-2a.14.14,0,0,1-.12-.06h0a2.54,2.54,0,0,0-1.83-.77,2.5,2.5,0,0,0-1.81.77.16.16,0,0,1-.11.05h0a.16.16,0,0,1-.11-.05l-.81-.82a.17.17,0,0,1,0-.21,3.94,3.94,0,0,1,2.84-1.21,3.94,3.94,0,0,1,2.84,1.21h0a.17.17,0,0,1,.06.12.14.14,0,0,1-.05.1l-.79.83a.15.15,0,0,1-.11,0m1.79-1.85H-244a.24.24,0,0,1-.09-.08,5,5,0,0,0-3.6-1.52,5,5,0,0,0-3.62,1.53.16.16,0,0,1-.11.05.16.16,0,0,1-.11-.05l-.81-.82a.17.17,0,0,1,0-.21,6.43,6.43,0,0,1,4.65-2,6.43,6.43,0,0,1,4.65,2,.17.17,0,0,1,0,.23l-.81.83a.16.16,0,0,1-.11.05" transform="translate(465.93 224.05)"/><path class="a" d="M-247.68-197.48a6.26,6.26,0,0,1,4.54,1.94h0l-.81.84v0a5.21,5.21,0,0,0-3.74-1.59,5.17,5.17,0,0,0-3.73,1.58l-.81-.82a6.27,6.27,0,0,1,4.54-1.94m0,2.64a3.8,3.8,0,0,1,2.73,1.16,0,0,0,0,1,0,0l-.8.82h0a2.7,2.7,0,0,0-1.94-.82,2.66,2.66,0,0,0-1.92.82l-.81-.83a3.82,3.82,0,0,1,2.73-1.16m0,2.67a1.29,1.29,0,0,1,.92.38l-.92.94-.91-.94a1.25,1.25,0,0,1,.91-.38m0-5.62a6.58,6.58,0,0,0-4.76,2,.31.31,0,0,0,0,.43l.81.82a.27.27,0,0,0,.21.09h0a.29.29,0,0,0,.22-.09,4.87,4.87,0,0,1,3.51-1.49,4.9,4.9,0,0,1,3.5,1.48.32.32,0,0,0,.13.1l.12,0a.27.27,0,0,0,.21-.09l.81-.84a.29.29,0,0,0,0-.42,6.56,6.56,0,0,0-4.77-2m0,2.64a4.06,4.06,0,0,0-2.94,1.26.3.3,0,0,0,0,.43l.81.82a.27.27,0,0,0,.21.09h0a.34.34,0,0,0,.22-.09,2.35,2.35,0,0,1,1.7-.73,2.39,2.39,0,0,1,1.72.73.33.33,0,0,0,.23.1.31.31,0,0,0,.22-.09l.79-.82a.29.29,0,0,0,.09-.21.33.33,0,0,0-.1-.23,4.09,4.09,0,0,0-3-1.26m0,2.67a1.58,1.58,0,0,0-1.12.47.31.31,0,0,0,0,.43l.92.94a.27.27,0,0,0,.21.09.29.29,0,0,0,.22-.09l.91-.94a.3.3,0,0,0,0-.43,1.59,1.59,0,0,0-1.13-.47" transform="translate(465.93 224.05)"/><rect class="a" x="199.91" y="30.72" width="1.64" height="2.33" rx="0.15" ry="0.15"/><path class="a" d="M-264.53-191.15h-1.34v-2h1.34Zm0-2.33h-1.34a.3.3,0,0,0-.3.3v2a.31.31,0,0,0,.3.3h1.34a.31.31,0,0,0,.31-.3v-2a.3.3,0,0,0-.31-.3" transform="translate(465.93 224.05)"/><rect class="a" x="202.78" y="29.73" width="1.64" height="3.32" rx="0.15" ry="0.15"/><path class="a" d="M-261.65-191.15H-263v-3h1.35Zm0-3.32H-263a.31.31,0,0,0-.3.3v3a.3.3,0,0,0,.3.3h1.35a.3.3,0,0,0,.3-.3v-3a.31.31,0,0,0-.3-.3" transform="translate(465.93 224.05)"/><rect class="a" x="205.6" y="28.19" width="1.64" height="4.86" rx="0.15" ry="0.15"/><path class="a" d="M-258.84-191.15h-1.34v-4.56h1.34Zm0-4.87h-1.34a.3.3,0,0,0-.3.31v4.56a.29.29,0,0,0,.3.3h1.34a.29.29,0,0,0,.3-.3v-4.56a.3.3,0,0,0-.3-.31" transform="translate(465.93 224.05)"/><rect class="a" x="208.57" y="26.67" width="1.64" height="6.38" rx="0.15" ry="0.15"/><path class="a" d="M-255.87-191.15h-1.34v-6.07h1.34Zm0-6.38h-1.34a.31.31,0,0,0-.3.31v6.07a.31.31,0,0,0,.3.3h1.34a.31.31,0,0,0,.31-.3v-6.07a.31.31,0,0,0-.31-.31" transform="translate(465.93 224.05)"/><path class="a" d="M-224.91-193.66h-.24a.31.31,0,0,1-.31-.31v-.39a.31.31,0,0,1,.31-.31h.24a.31.31,0,0,1,.31.31v.39a.31.31,0,0,1-.31.31" transform="translate(465.93 224.05)"/><rect class="a" x="240.42" y="28.87" width="0.48" height="2.03"/><path class="a" d="M-227.84-197.11a1.22,1.22,0,0,1,1.21,1.22v3.45a1.21,1.21,0,0,1-1.21,1.21H-237.9a1.21,1.21,0,0,1-1.21-1.21v-3.45a1.22,1.22,0,0,1,1.21-1.22h10.06m0-.6H-237.9a1.83,1.83,0,0,0-1.82,1.82v3.45a1.83,1.83,0,0,0,1.82,1.82h10.06a1.83,1.83,0,0,0,1.82-1.82v-3.45a1.83,1.83,0,0,0-1.82-1.82" transform="translate(465.93 224.05)"/><path class="a" d="M-228-191.67h-9.67a1,1,0,0,1-1-1v-3.06a1,1,0,0,1,1-1H-228a1,1,0,0,1,1,1v3.06a1,1,0,0,1-1,1" transform="translate(465.93 224.05)"/></svg>