<svg xmlns="http://www.w3.org/2000/svg" viewBox="0 0 381.63 245.4"><defs><style>.a{fill:#fff;}</style></defs><title>Logo</title><path class="a" d="M608.76,232.74c-.31,34.05-22.34,59.38-51.57,63.58A60.11,60.11,0,0,1,520.08,290a3.61,3.61,0,0,1-2.22-3c-.54-4.32-1.31-8.61-2-12.92s1.74-7.42,6.23-7a19,19,0,0,0,7.64-.41c1-.33,1.91-.66.68-1.89a2.42,2.42,0,0,1-.4-3.18c.74-1.2,2-1.11,3.1-.77,2.39.7,4.72,1.76,7.3,1.14.53-.12,1.29,0,1.4-.74s-.64-.69-1-1-.94-.6-.77-1.19.89-.69,1.45-.61c2,.3,3.92,1.18,6,1.39a18.93,18.93,0,0,0,8.85-1.26c.47-.18,1.07-.38,1-1,0-.79-.75-.72-1.29-.85a8.37,8.37,0,0,1-1.29-.4c-.42-.17-.86-.4-.87-.92s.5-.86,1-1a7.79,7.79,0,0,1,3.78-.27A21.25,21.25,0,0,0,572.34,252a12.55,12.55,0,0,0,1.45-1c.47-.34,1-.72.77-1.39s-.85-.48-1.34-.46a8.68,8.68,0,0,1-4.45-1c-.57-.3-1.21-.71-.92-1.48s1-.54,1.51-.43a18.13,18.13,0,0,0,9.5-.37,18.62,18.62,0,0,0,5.87-3.23c.57-.46,1.41-.92,1.13-1.83s-1.24-.75-2-.77a8.34,8.34,0,0,1-3.4-.49c-.52-.24-1.17-.5-1-1.22s.9-.52,1.44-.47a19.12,19.12,0,0,0,14.46-4.54,16.59,16.59,0,0,0,3.87-4.75c.2-.37.53-.81.1-1.23s-.72-.15-1.09,0c-.86.25-1.72.5-2.59.73-.45.12-.93.15-1.17-.36s.12-.85.46-1.14a12.65,12.65,0,0,1,7.34-3.05c.55,0,1.32.16,1.51-.52.24-.84-.62-1-1.16-1.27a20.52,20.52,0,0,0-16.08-.8c-1.21.42-2.41.9-3.63,1.29-.48.15-1.07.2-1.33-.4s.23-.93.62-1.26c1.9-1.61,1.88-1.73-.54-2.62a30.51,30.51,0,0,0-18.35-.85q-2.79.7-5.6,1.36a4.56,4.56,0,0,1-2.29,0c-.75-.2-1.54-.41-1.69-1.34s.45-1.54,1.2-2a20.42,20.42,0,0,1,4.34-1.55c.41-.13,1-.16,1-.72s-.61-.56-1-.67c-5.63-1.46-11-1.23-16.15,1.88a13.22,13.22,0,0,1-3.83,1.77c-.77.17-1.53.35-2.11-.41s-.21-1.46.29-2.09c1.09-1.36.16-1.4-.9-1.43a12.52,12.52,0,0,0-6.23,1.71,19.79,19.79,0,0,1-4.38,2,2.44,2.44,0,0,1-2.52-.49c-.74-.8-.45-1.66-.11-2.52,1.28-3.22,1.27-3.28-2.22-3a14.46,14.46,0,0,0-8.5,3.22c-2.53,2.13-5.11,3.91-8.65,3.29-.53-.09-.85.2-.9.75a7.69,7.69,0,0,0,0,1c.39,4.7.39,4.75,5.18,4.57a107.83,107.83,0,0,1,31,3.8,96.36,96.36,0,0,0,27.84,2.83c3.38-.13,6.74-.75,10.11-1.16.74-.09,1.62-.54,2.11.31s-.39,1.5-.93,2.09c-6.36,7-14.68,10.07-23.62,12-5.6,1.19-11.33,1.21-17,1.78a41.91,41.91,0,0,0-27.54,13.86c-.92,1-.75,2.16-.58,3.27,1.09,7.42,2.23,14.83,3.36,22.24.09.61.51,1.42-.12,1.78s-1.14-.4-1.61-.78c-14.13-11.31-22-25.92-23.26-44a60.15,60.15,0,0,1,45.82-62.39c20.23-4.78,38.5-.38,54.24,13.23C602,203.1,608.55,218.73,608.76,232.74Zm-32.32-2.87a2.49,2.49,0,0,0-1.79-.13c-3.25.3-6.5.77-9.75.84a97.47,97.47,0,0,1-26.45-3.07A103.08,103.08,0,0,0,508.23,224c-.89,0-1.78.21-2.67.26-1.23.06-1.43.64-1.22,1.78.49,2.71.82,5.44,1.23,8.16,1,6.71,2,13.43,3.05,20.13.09.53,0,1.26.57,1.54s.78-.32,1.09-.62c9.17-9.13,20.4-13.09,33.16-13.4A62,62,0,0,0,563,238.15,35.42,35.42,0,0,0,576.44,229.87ZM502.2,210.58c.07.81.08,1.51.21,2.2a2.74,2.74,0,0,0,3.34,2c1.55-.4.83-1.59.74-2.52a7.86,7.86,0,0,0-.34-2.06c-.5-1.41-.91-3.55-2.56-3.32S502.41,209.28,502.2,210.58Z" transform="translate(-229.45 -175.95)"/><path class="a" d="M247.16,406.49c1.79-6.76,3.48-13.56,5.4-20.29,3.64-12.75,7.42-25.47,11.12-38.22a2.15,2.15,0,0,1,2.07-1.76c1.92-.21,3.83-.51,5.73-.88,1.26-.24,1.71.29,1.8,1.44.32,3.72.67,7.43,1,11.15.66,8,1.35,16.07,1.93,24.11.47,6.52.8,13,1.19,19.57,0,.19.05.39.17,1.16,1.2-5.32,2.25-10.12,3.37-14.89q5.19-21.9,10.39-43.78c.29-1.2.78-1.84,2.09-2a60,60,0,0,0,6.13-.92c1.66-.34,2.05.23,1.66,1.76q-2.07,7.93-4.08,15.89-6.86,26.83-13.68,53.68c-.45,1.79-1.15,2.71-3.14,2.86-2.84.21-5.67.8-8.49,1.26-1.27.2-1.82-.24-1.92-1.57-.69-9.57-1.48-19.14-2.15-28.71-.19-2.85-1.09-5.21-3.57-6.77-1.07-.68-1.11-1.21-.12-2.1a7.91,7.91,0,0,0,2.49-7.06c-.19-1.79-.15-3.6-.23-5.7-1.46,5.32-2.82,10.37-4.24,15.4q-5.34,19-10.72,37.92c-.28,1-.65,1.67-1.79,1.83-3.17.42-6.33.9-9.49,1.4-1.44.23-1.82-.39-1.88-1.76-.36-8.53-.85-17.05-1.22-25.57-.21-4.67-2.59-7.85-6.53-10.06l-1-.56c0-.17,0-.27.07-.29,6.57-4,6.83-10.18,6.18-16.86-.45-4.64-.5-9.32-.73-14-.05-1.08.5-1.56,1.53-1.71,2.37-.33,4.74-.7,7.11-1.08,1.37-.22,1.92.27,1.95,1.7.16,7.6.3,15.2.6,22.79C246.59,384.78,246.66,395.64,247.16,406.49Z" transform="translate(-229.45 -175.95)"/><path class="a" d="M278.53,290.45c7.11,3.59,8.86,6.8,8.18,15.16a38.61,38.61,0,0,1-2.13,9.94c-2.79,7.79-8.73,11.87-16.39,13.83-6.14,1.57-12.48,2-18.72,3.06-1.57.26-3.16.47-4.73.74s-2.29-.16-2.07-2c.93-7.73,1.68-15.49,2.61-23.22a11.53,11.53,0,0,0-4.47-11.11c-1.39-1.09-1.2-1.42.27-2.16a11.92,11.92,0,0,0,6.79-10.12c.69-7.22,1.6-14.43,2.35-21.65a2.17,2.17,0,0,1,2.2-2.23c6.14-.84,12.24-2.12,18.4-2.58,11.33-.85,17,6.61,16.41,17.16C286.86,281.64,284.22,286.81,278.53,290.45Zm-1.92,15c.15-5.2-2.13-7.6-7.34-7.81-4-.16-7.79.84-11.68,1.3a1.33,1.33,0,0,0-1.23,1.34q-1.06,9.81-2.19,19.62c-.17,1.45.43,1.71,1.7,1.49,2.69-.45,5.41-.72,8.08-1.26C271.9,318.57,276.38,313.32,276.61,305.49Zm-6.82-37a67.07,67.07,0,0,0-8.71,1.08c-1.13.15-1.54.79-1.65,1.87-.52,5.23-1,10.47-1.68,15.68-.22,1.76.49,2.14,2,1.91,1.84-.29,3.69-.49,5.52-.83,7.06-1.29,10.68-5,11.61-11.8C277.64,270.86,275.42,268.39,269.79,268.45Z" transform="translate(-229.45 -175.95)"/><path class="a" d="M297.15,374.16c.29-.62,1-.68,1.47-1a11.87,11.87,0,0,0,6.27-7.65,52,52,0,0,1,8.39-18.26c4.15-5.52,9.29-9.75,16.11-11.57,11.27-3,19.91,2,23,13.21a51.39,51.39,0,0,1,1,20.25C352.32,378.34,350,387.12,345,395c-4.18,6.7-9.59,12-17.33,14.39-10.69,3.35-19.55-1.15-23.12-11.77a35.1,35.1,0,0,1-1.95-12.79,11.16,11.16,0,0,0-4.71-9.83,5,5,0,0,1-.6-.52A1.28,1.28,0,0,1,297.15,374.16Zm16.15,6.45a27.86,27.86,0,0,0,2,12.15c2.24,5.34,6.75,7.36,12.23,5.5a15.47,15.47,0,0,0,6.9-5c3.51-4.19,5.27-9.18,6.91-14.3,1.18-3.71,0-6.34-2.72-8.66-1.79-1.53-1.76-1.5.3-2.7s4.34-2.53,4.26-5.34a25.51,25.51,0,0,0-1.89-9.77c-2.44-5.5-7.21-7.5-12.84-5.3-4.53,1.77-7.47,5.26-9.68,9.42C314.79,364.14,313.51,372.26,313.3,380.61Z" transform="translate(-229.45 -175.95)"/><path class="a" d="M391.41,327.84c8.19.07,12.54,2.56,14.35,7.57,2.13,5.85,1.35,11.71-.31,17.5a19.71,19.71,0,0,1-11.32,13c-1.5.68-1.76,1.32-1.19,2.85,3.27,8.67,6.43,17.39,9.62,26.09.87,2.36.89,2.38-1.55,2.76s-4.9.61-7.31,1.1c-1.57.32-2.12-.32-2.57-1.66-2.91-8.52-5.93-17-8.8-25.54-.59-1.77-1.29-2.42-3.28-2-4.58.91-4.63.79-5.13,5.48-.91,8.41-1.83,16.83-2.64,25.25-.13,1.34-.64,1.9-1.87,2.06-2.24.3-4.51.5-6.72,1-1.75.38-1.93-.35-1.76-1.75.37-3.17.69-6.36,1-9.54.52-4.63,1.09-9.26,1.55-13.91a11.49,11.49,0,0,0-4.91-11.14c-1.17-.83-.84-1.12.25-1.63,4.61-2.13,6.84-5.86,7.31-10.86.67-7.16,1.48-14.31,2.26-21.47.1-.93.25-1.89,1.48-2.07C377.56,329.82,385.17,328.37,391.41,327.84Zm5.26,18.52c.07-5-1.87-7.49-6.58-7.73-3.79-.19-7.54.68-11.27,1.36-.95.18-1,.9-1.09,1.66-.6,5.22-1.13,10.45-1.89,15.65-.26,1.8.14,2.34,1.88,2.06,3.16-.52,6.33-.9,9.46-1.51C393.94,356.53,396.56,353.29,396.67,346.36Z" transform="translate(-229.45 -175.95)"/><path class="a" d="M458.69,387.24c.83-7.76,1.6-15.05,2.4-22.34a11.3,11.3,0,0,0-4.48-10.73c-1.44-1.12-1.16-1.43.29-2.15a11.71,11.71,0,0,0,6.73-9.94c.81-8,1.74-15.9,2.59-23.85.11-1,.4-1.6,1.52-1.75,2.44-.31,4.87-.7,7.31-1.1,1.25-.21,1.65.23,1.51,1.51-.71,6.29-1.35,12.58-2,18.88-.24,2.25-.46,4.51-.71,6.76-.13,1.12.16,1.57,1.42,1.38,6.52-1,13.06-1.9,19.59-2.84a1.73,1.73,0,0,0,1.68-1.81c.81-7.89,1.71-15.77,2.57-23.65,0-.27,0-.53.09-.8.41-3.05.41-3.05,3.42-3.5l5.34-.79c1.4-.2,1.95.36,1.79,1.8q-1.69,14.7-3.32,29.4t-3.16,29.43c-.33,3.11-.72,6.22-1,9.34a2.5,2.5,0,0,1-2.58,2.63c-2.12.21-4.24.49-6.33.86-1.4.25-1.8-.2-1.64-1.56.53-4.37,1-8.74,1.49-13.11.59-5.23,1.18-10.47,1.79-15.69.11-1-.19-1.34-1.21-1.19-6.66,1-13.32,1.94-20,2.91a1.83,1.83,0,0,0-1.69,1.88c-1,9.41-2.07,18.82-3,28.24-.16,1.53-.67,2.29-2.21,2.47-2,.22-4,.54-5.94.88C459.31,389.1,458.09,389,458.69,387.24Z" transform="translate(-229.45 -175.95)"/><path class="a" d="M330.75,312.65c-.16,1.58-.43,3.44-.5,5.3s-1,2.84-3,3.12c-8.85,1.19-17.68,2.54-26.52,3.83-1.25.18-2.5.35-3.75.55-2.27.37-2.45.29-2.23-2.07.43-4.65,1-9.28,1.48-13.92.34-3,.85-6.08,1-9.13a11.5,11.5,0,0,0-4.81-10.25c-.59-.46-1.69-1-.2-1.61,5.5-2.39,7.28-6.94,7.73-12.52.57-7,1.47-13.91,2.17-20.87a2.06,2.06,0,0,1,2-2l23.73-3.47c2.38-.35,4.75-.72,7.12-1.09,1.33-.21,2,.07,1.73,1.68-.37,2.23-.57,4.49-.72,6.75-.11,1.61-.59,2.46-2.44,2.69-6.74.86-13.45,2-20.17,2.92-1.11.16-1.88.48-2,1.76-.52,5-1.08,10.07-1.65,15.1-.17,1.48.47,1.62,1.77,1.41,5.13-.82,10.28-1.53,15.42-2.29,2.84-.42,3.13-.13,2.76,2.74-.27,2.05-.61,4.09-.71,6.15-.07,1.39-.76,1.84-2,2-5.41.78-10.81,1.63-16.23,2.31-1.93.24-2.69.95-2.84,3-.41,5.51-1,11-1.74,16.5-.23,1.83.42,2,2,1.77,6.65-1,13.31-2,20-3C330.91,309.63,330.91,309.65,330.75,312.65Z" transform="translate(-229.45 -175.95)"/><path class="a" d="M537.58,341.84c.58-.31,1.15-.61,1.72-.93a12.2,12.2,0,0,0,6.56-10.09c.78-8.23,1.76-16.43,2.64-24.65a1.73,1.73,0,0,1,1.68-1.81c6.67-.92,13.32-1.95,20-2.87a18.77,18.77,0,0,1,6.75.52c5.67,1.32,8.94,5.12,9.64,11.8A32,32,0,0,1,584.65,329c-2.38,6.07-6.82,9.88-12.86,12-4.88,1.74-10,2.34-15.07,3-1.92.24-2.67.92-2.83,3-.75,9.09-1.73,18.17-2.6,27.26a1.38,1.38,0,0,1-1.36,1.41c-2.31.34-4.61.71-6.91,1.09-1.55.25-2.21-.26-2-1.92.56-4.63,1-9.27,1.56-13.9.31-2.79.86-5.56.89-8.35a11.42,11.42,0,0,0-4.25-9.13C538.66,343,537.94,342.67,537.58,341.84Zm38.77-21.28c.06-5.27-1.42-7.47-5.88-8.2-4-.64-7.79.6-11.66,1.11-.7.09-.9.65-1,1.31-.71,5.81-1.42,11.62-2.19,17.42-.18,1.34.24,1.65,1.5,1.44,3.08-.52,6.18-.94,9.27-1.44C573.47,331.06,576.28,327.76,576.35,320.56Z" transform="translate(-229.45 -175.95)"/><path class="a" d="M415.37,358.38c2.31-2.35,1.29-4.84.65-7.58-2.57-11.05,3.08-22.93,13.35-28.57,7.71-4.23,16.18-3.56,22.17,1.84,2.24,2,2.26,2.13.62,4.58-1.11,1.66-2.33,3.26-3.36,5-.91,1.52-1.61,1.65-3,.41a12.17,12.17,0,0,0-17.11.78,10.23,10.23,0,0,0-2.72,6.92c-.07,3,1.66,5,4.29,6.2,3.4,1.52,6.88,2.89,10.33,4.32,7.5,3.11,10.52,7.77,10.25,15.82-.43,13-9.47,24.1-21.71,26.63-7.63,1.58-14.25-.29-19.74-5.94a1.92,1.92,0,0,1-.23-2.93q2.43-3.18,4.62-6.53c.9-1.37,1.5-1.58,2.84-.31,5.63,5.39,12.43,6.21,18.23,2.41a11.49,11.49,0,0,0,4.9-11.67,5.87,5.87,0,0,0-3.62-4.27c-6.51-2.84-12.76-6.49-20.14-6.76C415.84,358.7,415.73,358.58,415.37,358.38Z" transform="translate(-229.45 -175.95)"/><path class="a" d="M441.25,263.12c1.85-4.11,3.66-8.16,5.49-12.2,2.77-6.14,5.58-12.26,8.31-18.41a3,3,0,0,1,2.63-2.06c2.25-.26,4.48-.63,6.73-.93.57-.08,1.31-.49,1.7,0s-.15,1.12-.41,1.64q-4.45,9.28-8.95,18.56C453,257.5,449.18,265.2,445.52,273c-1.41,3-1.11,6.39-1.51,9.61-.84,6.67-1.52,13.36-2.24,20a1.83,1.83,0,0,1-1.8,1.78c-2.44.34-4.88.65-7.32,1-1.19.19-1.37-.38-1.26-1.36q.81-7.26,1.6-14.5c.28-2.52.62-5,.77-7.56a10.39,10.39,0,0,0-4.29-9.21c-1-.8-1.64-1.18,0-2.09,2.19-1.23,2.61-3.22,1.62-6.35-2.76-8.77-5.56-17.53-8.34-26.3-.72-2.31-.71-2.33,1.71-2.73,1.84-.31,3.7-.5,5.53-.86,1.62-.32,2.39.23,2.86,1.85,2.52,8.57,5.15,17.1,7.72,25.65A1.58,1.58,0,0,0,441.25,263.12Z" transform="translate(-229.45 -175.95)"/><path class="a" d="M359.37,247c-.64,5.94-1.25,11.7-1.89,17.46-.8,7.28-1.64,14.57-2.44,21.85-.67,6-1.23,12.06-2,18.08-.22,1.72.23,1.9,1.78,1.67,6.65-1,13.32-1.91,20-2.92,1.47-.23,1.74.25,1.56,1.58-.32,2.38-.56,4.76-.75,7.15a2.24,2.24,0,0,1-2.19,2.34q-15.24,2.19-30.45,4.46c-1.85.28-1.59-.79-1.46-1.9q1.19-10.83,2.37-21.66a11.42,11.42,0,0,0-4.6-10.89c-1.14-.89-1.2-1.31.19-2,4.57-2.21,6.63-6,7.07-11,.69-7.83,1.71-15.62,2.55-23.44a1.53,1.53,0,0,1,1.45-1.58l7.32-1.09C359.67,244.89,359.34,246.18,359.37,247Z" transform="translate(-229.45 -175.95)"/><path class="a" d="M381.67,277.74a6.05,6.05,0,0,1,2.21-1.38A11,11,0,0,0,389.8,268c1-7.6,1.79-15.22,2.55-22.84.52-5.13.43-5.13,5.44-5.87l3.16-.51c2.12-.34,2.35-.19,2.12,2-.73,7.08-1.53,14.17-2.31,21.25q-1.22,11.12-2.46,22.24c-.49,4.5-.9,9-1.5,13.5-.22,1.64-.07,2.13,1.77,1.84,6.57-1.06,13.17-1.9,19.75-2.94,1.7-.26,2,.28,1.73,1.79-.33,2.24-.55,4.49-.7,6.75-.11,1.47-.64,2.3-2.21,2.53-10.21,1.46-20.42,3-30.63,4.5-1.34.2-1.4-.45-1.28-1.49.68-6.29,1.1-12.62,2.06-18.87C388.2,286,387,281.22,381.67,277.74Z" transform="translate(-229.45 -175.95)"/><path class="a" d="M513,345.28c.24-.54.81-.64,1.27-.87,4.45-2.13,6.6-5.74,7.09-10.58.8-8,1.75-16,2.58-24a1.81,1.81,0,0,1,1.69-1.86c2.44-.37,4.88-.7,7.31-1.11,1.39-.24,1.42.58,1.32,1.53-.35,3.51-.69,7-1.07,10.54q-1.63,15-3.3,30c-1,8.67-1.88,17.35-2.93,26-.54,4.39-.65,4.36-5,4.89-1.32.16-2.63.41-4,.63s-1.76-.22-1.61-1.51c.58-5.09,1.13-10.19,1.69-15.29q.36-3.37.69-6.75c.44-4.53-1.41-8-4.89-10.78l-.79-.61S513,345.35,513,345.28Z" transform="translate(-229.45 -175.95)"/><path class="a" d="M610.92,300c-1,8.81-2,17.61-3,26.42-.66,6-1.32,12.05-1.9,18.09-.33,3.36-.45,3.55-3.84,4-1.72.21-3.42.5-5.14.75-1.25.18-1.91-.16-1.64-1.62.88-4.82-.94-8.59-4.6-11.63-.56-.47-1.71-.92-.15-1.6,5.56-2.44,7.24-7.14,7.71-12.75.6-7.1,1.48-14.18,2.2-21.27a2.14,2.14,0,0,1,2.13-2.18c2-.24,4.11-.44,6.12-.88,1.79-.38,2.61-.07,2.08,1.91a4.15,4.15,0,0,0-.07.79Z" transform="translate(-229.45 -175.95)"/><path class="a" d="M454,268.33a25.31,25.31,0,0,0,5-5.1c.44-.67,1.24-.71,2-.82,5.6-.82,11.2-1.61,16.78-2.49,1.59-.25,2.44-.12,2.1,1.85s-.4,3.83-.55,5.75a1.75,1.75,0,0,1-1.7,1.83c-5.59.81-11.18,1.66-16.77,2.48a2.12,2.12,0,0,1-2-.58A11.43,11.43,0,0,0,454,268.33Z" transform="translate(-229.45 -175.95)"/><path class="a" d="M593.15,368.45c.41-3.46.86-7.22,1.28-11,.08-.73.27-1.25,1.13-1.37,2.56-.35,5.12-.74,7.68-1.14,1.17-.18,1.6.34,1.48,1.44q-.68,6-1.34,11.89c-.11,1-.86,1.23-1.69,1.35l-6.51.93C593.29,370.84,593.1,370.67,593.15,368.45Z" transform="translate(-229.45 -175.95)"/></svg>