<?xml version="1.0" encoding="utf-8"?>
<!-- Generator: Adobe Illustrator 22.1.0, SVG Export Plug-In . SVG Version: 6.00 Build 0)  -->
<svg version="1.1" id="Capa_1" xmlns="http://www.w3.org/2000/svg" xmlns:xlink="http://www.w3.org/1999/xlink" x="0px" y="0px"
	 viewBox="0 0 364.5 364.5" style="enable-background:new 0 0 364.5 364.5;" xml:space="preserve">
<style type="text/css">
	.st0{stroke:#000000;stroke-width:2.5;stroke-miterlimit:10;}
</style>
<path class="st0" d="M354.6,103.7L353,92.5c-0.4-2.8-1.8-5.3-4.1-6.9c-2.3-1.7-5-2.4-7.8-1.9l-180.8,27.7c0.6-5.6,2.2-9,4.3-13.3
	c0.3-0.7,0.7-1.5,1-2.3l165.9-49.8c2.7-0.8,4.9-2.6,6.2-5.1c1.3-2.5,1.6-5.3,0.7-8L335,22.1c-0.8-2.7-2.7-4.9-5.2-6.2
	c-2.5-1.3-5.4-1.5-8-0.6l-49.4,16.3c-2.6,0.9-4.1,3.7-3.2,6.4c0.9,2.6,3.7,4.1,6.4,3.2l49.4-16.3c0,0,0.1,0,0.3,0
	c0.1,0.1,0.2,0.2,0.2,0.2l3.4,10.7c0,0,0,0.1,0,0.3c-0.1,0.1-0.2,0.2-0.2,0.2L169.6,84c0.1-0.3,0.1-0.5,0.2-0.8
	c0.1-0.2,0.1-0.5,0.2-0.7c0.1-0.4,0.2-0.8,0.3-1.2c0.1-0.3,0.1-0.5,0.2-0.8c0.1-0.4,0.2-0.8,0.2-1.2c0.1-0.3,0.1-0.6,0.2-0.9
	c0.1-0.4,0.1-0.7,0.2-1.1c0.1-0.4,0.1-0.7,0.2-1.1c0-0.2,0.1-0.4,0.1-0.6l81.7-27c2.6-0.9,4.1-3.7,3.2-6.4c-0.9-2.6-3.7-4.1-6.4-3.2
	l-79.1,26.1c-0.5-1-1.3-1.8-2.2-2.5c-2.3-1.8-5.4-2.4-8.2-1.4l-8.3,2.7c-3.4,1.1-5.7,4.1-6,7.6c-0.1,0.6-0.1,1.2-0.2,1.8L134.8,77
	c-0.4-0.8-1-1.5-1.7-2.1c-2.3-2.1-5.7-2.9-8.7-1.9l-9.3,3.1c-2.5,0.8-4.5,2.7-5.4,5.2c-0.6,1.6-1.3,3.2-2.1,4.7l-11.9,3.9
	c-0.3-0.5-0.6-1-1-1.4c-2.3-2.6-6-3.6-9.3-2.5l-10.2,3.4c-2.6,0.9-4.6,2.8-5.5,5.3c-0.5,1.4-1,2.9-1.4,4.3l-11.3,3.8
	c-0.5-0.8-1.1-1.6-1.8-2.2c-2.4-2.1-5.5-2.7-8.5-1.7l-8.3,2.8c-3.3,1.1-5.6,4-6,7.5c-0.1,0.6-0.1,1.3-0.2,2l-11.1,3.7
	c-5.4,1.8-8.4,7.6-6.7,13.1l0.8,2.5c0.9,2.9,3,5.1,5.6,6.3c-1.2,2-1.8,4.4-1.4,6.9l0.4,2.6c0.7,5.2,5.2,9,10.4,9
	c0.4,0,0.9,0,1.3-0.1l10.3-1.3c1.3,3.5,2.1,7.3,2.1,13.4c0,9.4-1.9,13.4-4.6,19c-1.6,3.5-3.4,7.3-4.8,12.2H17.7
	c-2.3,0-4.4,1-5.9,2.6c-1.5,1.7-2.2,3.9-2,6.1c3.1,30.6,16.4,87,71.5,122.7v8.6c0,8.5,6.9,15.4,15.4,15.4h131.5
	c8.5,0,15.4-6.9,15.4-15.4v-8.7c55-35.7,68.4-92.1,71.5-122.7c0.2-2.2-0.5-4.5-2-6.1c-1.5-1.7-3.7-2.6-5.9-2.6H164.3
	c0.1-0.2,0.1-0.3,0.2-0.5c3.2-6.8,7.2-15.2,7.2-30.8c0-14.1-3.3-22.4-6.3-28.9l180.1-22.6c2.8-0.3,5.3-1.8,7-4
	C354.2,109.2,355,106.5,354.6,103.7L354.6,103.7z M24.9,127.1l-0.8-2.5c-0.1-0.2,0-0.4,0.2-0.4l7.8-2.6c0,0.3,0,0.5,0,0.8
	c0,0.2,0,0.3,0,0.5c0,0.4,0.1,0.7,0.1,1.1c0,0,0,0,0,0.1c0,0.4,0.1,0.8,0.1,1.2l-7.1,2.1C25.1,127.4,25,127.3,24.9,127.1L24.9,127.1
	z M30.2,144.8c-0.2,0-0.4-0.1-0.4-0.3l-0.4-2.6c0-0.2,0.1-0.4,0.3-0.4l6.3-1c0,0.1,0,0.1,0.1,0.2c0.2,0.5,0.4,0.9,0.6,1.4
	c0,0.1,0.1,0.2,0.1,0.2c0.2,0.5,0.4,1,0.6,1.5c0,0,0,0,0,0L30.2,144.8z M147.3,99L147.3,99c0.5-1.6,1.1-3,1.7-4.4c0,0,0,0,0,0
	c0.6-1.4,1.2-2.7,1.8-4c0.1-0.1,0.1-0.3,0.2-0.4c0.1-0.2,0.2-0.4,0.3-0.6c0.1-0.2,0.1-0.3,0.2-0.5c0.2-0.4,0.4-0.8,0.5-1.2
	c0-0.1,0-0.1,0.1-0.2c0.2-0.4,0.3-0.7,0.5-1.1c0-0.1,0.1-0.2,0.1-0.3c0.2-0.4,0.3-0.8,0.5-1.3c0-0.1,0.1-0.2,0.1-0.3
	c0.1-0.4,0.3-0.7,0.4-1.1c0-0.1,0.1-0.3,0.1-0.4c0.1-0.4,0.3-0.9,0.4-1.3c0-0.2,0.1-0.3,0.1-0.5c0.1-0.3,0.2-0.7,0.3-1
	c0-0.2,0.1-0.3,0.1-0.5c0.1-0.5,0.2-1,0.3-1.5c0-0.1,0-0.1,0-0.2c0,0,0-0.1,0-0.1c0.3-1.5,0.6-3.1,0.7-4.9l5.6-1.8
	c-0.1,0.7-0.2,1.4-0.3,2.1c0,0.1,0,0.2,0,0.3c-0.1,0.6-0.2,1.2-0.3,1.8c0,0.2-0.1,0.3-0.1,0.5c-0.1,0.7-0.3,1.4-0.4,2.1
	c0,0,0,0.1,0,0.1c-0.1,0.7-0.3,1.3-0.4,1.9c0,0.2-0.1,0.4-0.2,0.6c-0.2,0.6-0.3,1.3-0.5,1.9c0,0.1,0,0.1-0.1,0.2
	c-0.2,0.6-0.4,1.3-0.6,1.9c0,0.1-0.1,0.3-0.1,0.4c-0.2,0.7-0.5,1.4-0.7,2c0,0,0,0.1,0,0.1c-0.3,0.7-0.5,1.4-0.8,2.2c0,0,0,0,0,0
	c-0.6,1.5-1.2,2.8-1.7,4c-2.8,6-5.5,11.7-5.5,23.3c0,0.1,0,0.1,0,0.2v0c0,0.6,0,1.2,0,1.7c0,0.4,0,0.7,0,1.1c0,0.2,0,0.4,0,0.6
	c0,0.4,0,0.8,0.1,1.2c0,0.1,0,0.2,0,0.3c0.3,3.7,0.9,6.7,1.7,9.3c0,0,0,0.1,0,0.1c0.3,0.9,0.6,1.8,0.9,2.6c0,0,0,0,0,0
	c0.8,2.2,1.8,4.2,2.7,6.2c3,6.5,6.2,13.2,6.2,26.5c0,13.3-3.2,20-6.2,26.5c-0.7,1.5-1.5,3.1-2.1,4.8h-5.7c1-2.9,2.2-5.5,3.4-7.9
	c2.8-6,5.5-11.7,5.5-23.3s-2.7-17.3-5.5-23.3c-1.3-2.9-2.7-5.8-3.8-9.2c0,0,0,0,0,0c-1.4-4.5-2.2-9.4-2.4-14.9c0,0,0,0,0,0
	c0-0.7,0-1.5,0-2.3C144.7,109.2,145.8,103.6,147.3,99L147.3,99z M130.3,197.7c3.2-6.8,7.2-15.2,7.2-30.8c0-11.4-2.1-18.9-4.5-24.8
	l5.9-0.7c0.9,2.4,1.9,4.5,2.9,6.5c2.6,5.6,4.6,9.7,4.6,19c0,9.4-1.9,13.4-4.6,19c-1.6,3.5-3.4,7.3-4.8,12.2h-6.8
	C130.2,198,130.3,197.8,130.3,197.7L130.3,197.7z M128.7,132.4c0-0.1-0.1-0.2-0.1-0.2c-0.1-0.2-0.2-0.5-0.3-0.7
	c-0.1-0.2-0.2-0.4-0.2-0.6c-0.1-0.4-0.3-0.7-0.4-1.1c0-0.1-0.1-0.2-0.1-0.3c-0.3-0.9-0.6-1.9-0.8-2.9l8.2-1.3c0,0.1,0,0.1,0,0.2
	c0.1,1,0.2,1.9,0.4,2.8c0,0.1,0,0.2,0,0.3c0.1,0.9,0.3,1.8,0.5,2.7c0,0.1,0,0.2,0,0.2L128.7,132.4z M134.6,87.7l7.7-2.5
	c0,0.1-0.1,0.1-0.1,0.2c-0.1,0.2-0.2,0.5-0.3,0.7c0,0.1-0.1,0.1-0.1,0.2c-0.7,1.6-1.5,3.2-2.3,5c0,0,0,0.1-0.1,0.1
	c-0.2,0.6-0.5,1.1-0.7,1.7c0,0,0,0.1,0,0.1l-7.1,2.1C132.6,93.1,133.7,90.6,134.6,87.7L134.6,87.7z M126.8,107.4l8.8-2.6
	c-0.5,3.1-0.9,6.6-0.9,10.5l-8.8,1.3C125.8,112.8,126.2,109.9,126.8,107.4L126.8,107.4z M110.9,109C110.9,109,110.9,109,110.9,109
	c0.6-5.1,1.8-9,3.1-12.4c0,0,0-0.1,0-0.1c0.2-0.6,0.5-1.1,0.7-1.7c0-0.1,0.1-0.2,0.1-0.3c0.1-0.2,0.2-0.4,0.2-0.5
	c0-0.1,0.1-0.2,0.1-0.3c0.1-0.2,0.2-0.5,0.3-0.7l0.1-0.2c0.1-0.2,0.2-0.4,0.3-0.6c0.3-0.6,0.5-1.1,0.8-1.7c0.7-1.5,1.5-3.3,2.3-5.1
	l6.3-2.1c-1.2,4-2.7,7.2-4,10.1c0,0.1-0.1,0.1-0.1,0.2c0,0.1-0.1,0.2-0.1,0.3c-0.1,0.2-0.2,0.4-0.3,0.7c-0.1,0.2-0.2,0.4-0.3,0.6
	c-0.1,0.1-0.1,0.3-0.2,0.4c-0.1,0.3-0.2,0.5-0.4,0.8c0,0.1-0.1,0.1-0.1,0.2c-2.3,5.1-4.2,10.7-4.2,20.4c0,2.1,0.1,4,0.3,5.8v0
	c0,0,0,0,0,0c0,0.3,0.1,0.5,0.1,0.7c0,0.3,0.1,0.5,0.1,0.8c0,0.3,0.1,0.7,0.1,1c0,0.1,0,0.2,0.1,0.4c0.6,3.8,1.6,6.9,2.7,9.6
	c0,0.1,0.1,0.2,0.1,0.3c0,0.1,0.1,0.2,0.1,0.3c0.1,0.3,0.2,0.6,0.4,0.8c0,0.1,0,0.1,0.1,0.2c0.5,1,0.9,2,1.4,3c0,0,0,0,0,0
	c0.1,0.1,0.1,0.2,0.2,0.3c3.1,6.5,6.2,13.2,6.2,26.5s-3.2,20-6.2,26.5c-0.7,1.5-1.5,3.1-2.1,4.8h-5.7c1-2.9,2.2-5.5,3.4-7.9
	c2.8-6,5.5-11.7,5.5-23.3s-2.7-17.3-5.5-23.3c-0.8-1.8-1.7-3.6-2.5-5.5c0,0,0,0,0,0c-1.8-4.5-2.9-8.8-3.4-13.8l0,0
	c-0.2-2.1-0.3-4.5-0.3-7.1C110.5,114.1,110.7,111.4,110.9,109L110.9,109z M107.6,147.9c2.6,5.6,4.5,9.7,4.5,19
	c0,9.4-1.9,13.4-4.5,19c-1.6,3.5-3.4,7.3-4.8,12.2h-6.8c0.1-0.2,0.2-0.3,0.2-0.5c3.2-6.8,7.2-15.2,7.2-30.8c0-8.9-1.3-15.5-3-20.7
	l6.1-0.8C106.8,146.3,107.2,147.1,107.6,147.9L107.6,147.9z M95.1,133.9C95.1,133.9,95.1,133.9,95.1,133.9c-0.3-0.8-0.7-1.5-1-2.2
	l7.4-1.1c0,0.1,0,0.2,0.1,0.3c0.1,0.7,0.3,1.5,0.5,2.2c0,0.2,0.1,0.3,0.1,0.5c0.2,0.7,0.4,1.4,0.5,2.1c0,0.1,0,0.1,0,0.2l-6.4,0.8
	c-0.1-0.1-0.1-0.3-0.2-0.4c0,0,0,0,0-0.1C95.8,135.3,95.4,134.6,95.1,133.9L95.1,133.9z M94.9,100.8l8-2.6c-0.2,0.7-0.4,1.3-0.5,2
	l0,0.1c-0.2,0.9-0.4,1.9-0.6,2.9c0,0.1,0,0.1,0,0.2c-0.1,0.3-0.1,0.6-0.2,1l-8.7,2.6C93.2,104.8,94,102.9,94.9,100.8L94.9,100.8z
	 M100.4,115.3c0,0.6,0,1.2,0,1.8c0,1.2,0,2.3,0.1,3.4l-8.7,1.3c-0.1-1.2-0.2-2.5-0.2-3.9L100.4,115.3z M87.1,93.7L87.1,93.7
	c0.1,0.1,0.1,0.1,0,0.1L87.1,93.7C87,93.7,87.1,93.7,87.1,93.7L87.1,93.7z M76.3,115.4c0-0.3,0-0.7,0-1c0-0.2,0-0.4,0-0.6
	c0-0.4,0-0.8,0.1-1.2c0-0.1,0-0.2,0-0.4c0-0.4,0.1-0.8,0.1-1.2c0-0.1,0-0.2,0-0.3c0-0.4,0.1-0.8,0.1-1.2c0-0.1,0-0.1,0-0.2
	c0.1-1.1,0.3-2.1,0.4-3c0-0.2,0.1-0.5,0.1-0.7c0-0.2,0.1-0.4,0.1-0.5c0.1-0.3,0.1-0.7,0.2-1c0.5-2.2,1-4,1.5-5.4l6.7-2.2
	c-2.3,5.2-4.3,10.8-4.3,20.6c0,9.9,2,15.5,4.3,20.7l0,0c0.2,0.4,0.4,0.9,0.6,1.3c0,0,0,0,0,0c0.2,0.4,0.4,0.9,0.6,1.3
	c0,0,0,0.1,0.1,0.1c0.2,0.5,0.5,1,0.7,1.6l0,0.1c0.3,0.6,0.5,1.2,0.8,1.8h0c2.4,5.5,4.6,12,4.6,22.9c0,13.3-3.2,20-6.2,26.5
	c-0.7,1.5-1.5,3.1-2.1,4.8h-5.7c1-2.9,2.2-5.5,3.4-7.9c2.8-6,5.5-11.7,5.5-23.3c0-11.6-2.7-17.3-5.5-23.3c-0.3-0.6-0.5-1.1-0.8-1.7
	c0,0,0,0,0,0c-0.2-0.4-0.4-0.8-0.6-1.3c0,0,0,0,0,0c-1.4-3.1-2.9-6.8-3.8-11.6l0-0.1c-0.6-2.9-0.9-6.3-1-10.2v0c0-0.5,0-1,0-1.6
	C76.3,116.5,76.3,115.9,76.3,115.4L76.3,115.4z M74.1,149.4c2.3,4.9,3.8,9,3.8,17.4c0,9.4-1.9,13.4-4.6,19
	c-1.6,3.5-3.4,7.3-4.8,12.2h-6.8c0.1-0.2,0.1-0.3,0.2-0.5c3.2-6.8,7.2-15.2,7.2-30.8c0-6.7-0.7-12.1-1.8-16.6L74.1,149.4z
	 M68.6,135.6c0,0.1,0,0.1,0,0.2c0.2,0.7,0.4,1.3,0.6,1.9c0,0.1,0,0.1,0.1,0.2c0.2,0.7,0.4,1.3,0.7,1.9c0,0,0,0,0,0l-5.9,0.7
	c0,0,0,0,0,0c-0.6-1.4-1.2-2.7-1.8-4L68.6,135.6z M66.7,125.6l-1.4,0.2l1.4-0.4C66.7,125.5,66.7,125.6,66.7,125.6L66.7,125.6z
	 M57.5,115.2c0-0.1,0-0.2,0-0.2c0-0.6,0.1-1.2,0.1-1.7l0-0.1l8.9-2.9c0,0.1,0,0.3,0,0.4c0,0.3,0,0.6-0.1,1c0,0.6-0.1,1.2-0.1,1.8
	c0,0.3,0,0.7,0,1c0,0.2,0,0.4,0,0.6l-8.8,2.6c0-0.2,0-0.4,0-0.6C57.4,116.4,57.5,115.8,57.5,115.2L57.5,115.2z M43,128
	C43,127.9,43,127.9,43,128c-0.3-1.7-0.5-3.4-0.6-5.2c0,0,0-0.1,0-0.1c0-0.4-0.1-0.8-0.1-1.1c0-0.1,0-0.3,0-0.4c0-0.3,0-0.6,0-0.9
	c0-0.2,0-0.3,0-0.5c0-0.3,0-0.6,0-0.9c0-0.1,0-0.3,0-0.4c0-0.4,0-0.9,0-1.4c0-0.4,0-0.9,0-1.3c0-0.3,0-0.6,0-0.9
	c0-1.4,0.1-2.8,0.2-4.1l5.4-1.8c-0.1,0.4-0.1,0.9-0.2,1.3c0,0.1,0,0.3-0.1,0.4c-0.1,0.5-0.1,1-0.1,1.5c0,0.2,0,0.3,0,0.5
	c0,0.5-0.1,1-0.1,1.6c0,0.2,0,0.4,0,0.6c0,0.7,0,1.5,0,2.2c0,0.7,0,1.4,0,2.1c0.3,9.3,2.4,14.6,4.8,19.8c0,0,0,0.1,0.1,0.2
	c0.2,0.4,0.4,0.9,0.6,1.3c0,0,0,0,0,0.1c0.3,0.5,0.5,1.1,0.8,1.6c0,0,0,0,0,0c0.8,1.8,1.6,3.6,2.4,5.6c0,0,0,0,0,0
	c1.7,4.8,3,10.6,3,19.1c0,13.3-3.2,20-6.2,26.5c-0.7,1.5-1.5,3.1-2.1,4.8H45c1-2.9,2.2-5.5,3.4-7.9c2.8-6,5.5-11.7,5.5-23.3
	c0-11.6-2.7-17.3-5.5-23.3c0,0,0,0,0,0c-0.1-0.3-0.3-0.6-0.4-0.9c-0.1-0.1-0.1-0.2-0.1-0.3c-0.1-0.3-0.3-0.6-0.4-1l-0.1-0.2
	c-0.2-0.3-0.3-0.7-0.5-1c0,0,0-0.1-0.1-0.1c-0.2-0.4-0.3-0.8-0.5-1.1c0,0,0,0,0-0.1c-0.7-1.6-1.3-3.4-1.9-5.3c0,0,0,0,0,0
	C43.8,131.8,43.4,130,43,128L43,128z M304.8,208.2c-3.3,29.4-16.6,80.8-67.3,113.3H134.2c-2.8,0-5,2.3-5,5c0,2.8,2.3,5,5,5h99.3v6.6
	c0,2.9-2.4,5.3-5.3,5.3H96.7c-2.9,0-5.3-2.4-5.3-5.3v-6.6h19.4c2.8,0,5-2.3,5-5c0-2.8-2.3-5-5-5H87.4c-50.7-32.5-64-83.9-67.3-113.3
	H304.8z M344.5,105.3c-0.1,0.1-0.2,0.1-0.2,0.1l-182.9,22.9c-0.5-1.9-1-4.1-1.2-6.8l182.5-27.9c0,0,0.1,0,0.3,0.1
	c0.1,0.1,0.1,0.2,0.1,0.2l1.5,11.1C344.6,105.1,344.6,105.2,344.5,105.3L344.5,105.3z M344.5,105.3"/>
</svg>
