<?xml version="1.0" encoding="utf-8"?>
<!-- Generator: Adobe Illustrator 22.1.0, SVG Export Plug-In . SVG Version: 6.00 Build 0)  -->
<svg version="1.1" id="Capa_1" xmlns="http://www.w3.org/2000/svg" xmlns:xlink="http://www.w3.org/1999/xlink" x="0px" y="0px"
	 viewBox="0 0 364.5 364.5" style="enable-background:new 0 0 364.5 364.5;" xml:space="preserve">
<style type="text/css">
	.st0{fill:#EF8829;}
</style>
<path d="M364.3,70.6c-1-4-5-6.5-9.1-5.6l-179.7,43.1V86.1l163.4-70c3.8-1.6,5.6-6.1,4-9.9c-1.6-3.8-6.1-5.6-9.9-4L175.2,69.9
	c-1-2.9-3.8-5.1-7.1-5.1c-4.2,0-7.5,3.4-7.5,7.5v3.8l-4.6,2c-0.6-3.5-3.7-6.2-7.4-6.2c-4.2,0-7.5,3.4-7.5,7.5v5l-4.6,1.9
	c-0.6-3.5-3.7-6.2-7.4-6.2c-4.2,0-7.5,3.4-7.5,7.5v5.1l-4.5,1.9c-0.5-3.7-3.6-6.5-7.4-6.5c-4.2,0-7.5,3.4-7.5,7.5v5.4l-4.6,2
	c-0.8-3.3-3.8-5.8-7.3-5.8c-4.2,0-7.5,3.4-7.5,7.5v4.6l-20.8,8.9c-3.8,1.6-5.6,6.1-4,9.9c1.2,2.9,4,4.6,6.9,4.6c1,0,2-0.2,3-0.6
	l14.9-6.4v4.6L68.3,134c-4,1-6.5,5-5.6,9.1c0.8,3.4,3.9,5.8,7.3,5.8c0.6,0,1.2-0.1,1.8-0.2l10.8-2.6v64.4H7.5
	c-4.2,0-7.5,3.4-7.5,7.5c0,28.3,6.9,54.4,20,75.4c12.9,20.9,31.8,36.4,54.7,45.2v16.8c0,4.2,3.4,7.5,7.5,7.5h97.7
	c4.2,0,7.5-3.4,7.5-7.5v-16.8c22.9-8.8,41.7-24.3,54.7-45.2c13.1-21,20-47.1,20-75.4c0-4.2-3.4-7.5-7.5-7.5H117.2v-72.7l4.7-1.1
	c0.9,3.1,3.8,5.4,7.2,5.4c4.2,0,7.5-3.4,7.5-7.5V133l4.5-1.1c0.4,3.8,3.6,6.7,7.5,6.7c4.2,0,7.5-3.4,7.5-7.5v-2.8l4.4-1.1v14.4
	c0,4.2,3.4,7.5,7.5,7.5s7.5-3.4,7.5-7.5v-18l183.2-44C362.8,78.7,365.3,74.7,364.3,70.6z M172.4,347.8H89.7v-7.2h82.7V347.8z
	 M82.9,325.5c-40.5-14.2-65.4-51.2-67.7-100.1h231.6c-2.3,48.9-27.2,85.9-67.7,100.1H82.9z M97.7,119.5l4.4-1.9v8.3l-4.4,1.1V119.5z
	 M97.7,142.4l4.4-1.1v69.1h-4.4V142.4z M121.6,121.2l-4.4,1.1v-11.1l4.4-1.9V121.2z M141.1,116.5l-4.4,1.1v-14.8l4.4-1.9V116.5z
	 M160.5,111.8l-4.4,1.1V94.4l4.4-1.9V111.8z"/>
<path class="st0" d="M82.1,303.6c-1.4,2.3-3.9,3.6-6.4,3.6c-1.3,0-2.7-0.4-3.9-1.1c-20.2-12.5-34-32.4-40.2-57.7
	c-1-4,1.5-8.1,5.5-9.1c4-1,8.1,1.5,9.1,5.5c5.2,21.3,16.7,38.1,33.5,48.4C83.2,295.5,84.3,300.1,82.1,303.6z"/>
<path class="st0" d="M246,235.8c0.1-0.9,0.2-1.8,0.3-2.7C246.2,234,246.1,234.9,246,235.8z"/>
<path d="M79.7,293.3c-16.7-10.3-28.3-27.1-33.5-48.4c-1-4-5-6.5-9.1-5.5c-4,1-6.5,5-5.5,9.1c6.1,25.3,20,45.2,40.2,57.7
	c1.2,0.8,2.6,1.1,3.9,1.1c2.5,0,5-1.3,6.4-3.6C84.3,300.1,83.2,295.5,79.7,293.3z"/>
</svg>
