<?xml version="1.0" encoding="utf-8"?>
<!-- Generator: Adobe Illustrator 22.1.0, SVG Export Plug-In . SVG Version: 6.00 Build 0)  -->
<svg version="1.1" id="Capa_1" xmlns="http://www.w3.org/2000/svg" xmlns:xlink="http://www.w3.org/1999/xlink" x="0px" y="0px"
	 viewBox="0 0 364.5 364.5" style="enable-background:new 0 0 364.5 364.5;" xml:space="preserve">
<style type="text/css">
	.st0{fill:#EF8829;}
	.st1{stroke:#000000;stroke-width:6;stroke-miterlimit:10;}
	.st2{stroke:#000000;stroke-width:0.75;stroke-miterlimit:10;}
	.st3{stroke:#000000;stroke-width:3;stroke-miterlimit:10;}
</style>
<path class="st0" d="M-148.4,276.8c0.1-1,0.2-2,0.3-3C-148.2,274.7-148.3,275.8-148.4,276.8z"/>
<path class="st0" d="M-148.4,281.3c0.1-1,0.2-2,0.3-3C-148.2,279.2-148.3,280.3-148.4,281.3z"/>
<path class="st1" d="M329.6,115.4c1.8,3.4,3.5,6.4,5.1,9.5c20.8,40.2,20.2,85-1.1,125.3c-14,26.4-33.4,42.4-53.8,56.2
	c-27.2,18.4-56.3,25.6-86.3,27.3c-38.8,2.1-76-7.1-110.8-31.7c-22.2-15.6-41.7-35.6-53.8-67.3c-12.2-31.9-12.2-63.9-0.1-95.5
	c12.6-32.6,32.9-53.7,56-70.1c4.7-3.3,9.6-6.1,14.5-8.7c2.4-1.3,3.6-2.6,3.7-6.7c0.7-17.4,10-27.6,22.3-24.9
	c1.1,0.3,2.3,0.5,3.4,1.1c6.3,3.8,11.1,5,15.9-5.4c4.2-9.2,15.1-7.3,22.1,1.8c1.9,2.5,3.3,5.7,5,8.8c4.1-4.7,7.6-7.3,11-2.7
	c1.3,1.8,1.5,5.4,1.6,8.5c-6.7-4.5-10.5-1.7-10.6,8.6c-0.1,7.3,1.1,14.6,1.7,21.9c0.4,4.7,0.9,9.4,1.4,14.1c0.2,1.5,0.8,3,1.1,4.5
	c0.8,3.9,1.5,7.7,2.4,11.6c0.3,1.2,1,2.2,1.6,3.3c0.4-0.2,0.9-0.5,1.3-0.7c-0.6-3.4-1-6.9-1.8-10.2c-3.6-14.9-2.2-29.7,0.2-44.5
	c1-6,7.7-11.5,13.7-10.6c12.6,1.9,25.3,3.4,37.8,6.8c33,9,62.9,27.3,88.5,58.5L329.6,115.4z M105.9,64.4c-2.6,1-4.3,1.4-6,2.2
	c-15,8.2-29,19.1-41.5,33.4c-12.6,14.6-23.7,31.2-29.5,53.1c-10.7,40.4-2,75,17.9,105.2c15.7,23.8,35.9,38.3,57.2,49.5
	c46.5,24.4,93.9,24.8,141.7,8.5c28.1-9.6,53.4-27.4,74.5-55.1c17-22.4,27.1-50.1,24.4-84.2c-2.4-29.5-13.5-52.4-29.1-71.1
	c-25.4-30.2-55.3-47.3-88-55.1c-11.2-2.7-22.6-3.7-33.9-5.3c-4.2-0.6-6.6,2.1-7.8,8.1c-2.8,13.8-2.8,27.3,1,40.8
	c0.9,3,1.7,6.1,2.2,9.2c1.1,7.4-0.9,10.5-6,8.5c-4.2-1.7-8.4-4.3-12.3-7.2c-8.3-6.3-17-9.9-26.5-10.1c-5.4-0.1-10.9-0.2-16.3-0.7
	c-3.9-0.3-8-0.7-11.7-2.1c-7-2.6-10.4-9.2-10.5-19.3C105.9,70.3,105.9,67.9,105.9,64.4z M169.7,73.6c0-10,0-20,0-30
	c0-1.1-0.3-2.4-0.8-3.2c-2.8-4.2-5.3-9-8.6-12.2c-4.9-4.8-11.2-2.8-14,3.3c-5,10.9-5,10.9-13.8,7c-1.3-0.6-2.5-1.1-3.8-1.6
	c-13-4.9-19.1,0.5-21.3,19c-0.4,3.3-1.6,6.9,2.3,8c0.6,0.2,1,3.4,0.9,5.2C110,80.4,113,85.9,121,86.8c6.6,0.7,13.2,0.9,19.8,0.9
	c9.9,0,19.4,2.3,28.3,8.3c2,1.4,4.1,2.5,6.1,3.7c0.2-0.3,0.4-0.6,0.6-0.9c-1.8-3.7-3.6-7.3-5.9-11.9c-1.1,6.7-3.2,4.6-5.3,2.6
	c-15.4-14.5-31.9-25-51.2-24.3c-0.3-7.2,3.2-7.5,6.1-6.7c8.7,2.5,17.5,4.8,25.8,8.9c7.5,3.7,14.4,9.6,21.5,14.5
	c-6.5-12.2-13.7-23.5-20.8-35c-0.8-1.4-0.9-3.7-1.3-5.6c1.6,0.2,3.7-0.3,4.8,0.9c2.4,2.7,4.5,6.1,6.6,9.4
	C160.8,59,165.3,66.5,169.7,73.6z"/>
<path class="st1" d="M120.4,109.9c1.8,0.8,5.8,1.6,8.9,4.2c18.3,15,37.8,14.5,57.6,8.7c3.3-1,6.4-3.6,9.7-5.3c2-1,4.1-2.3,6.1-2.3
	c1.3,0,3.1,1.7,3.8,3.4c0.5,1.3,0.1,4.2-0.7,5.5c-1.2,2-3,3.7-4.7,4.9c-20.2,13.2-34.4,35.2-45.6,61.5c-1.9,4.4-3.6,8.9-5.6,13
	c-5.7,11.4-13.4,14-21.9,7.2c-2.6-2-4.5-2.4-7.3-0.7c-7.2,4.3-13.8,2.7-19.6-5c-2-2.6-4.7-4-7-6.1c-4.1-3.8-8.6-7-12.1-11.6
	c-3.8-4.9-5.1-11.9-3.9-19.2c1.2-7.9,2.5-15.7,4.1-23.5c2.2-11.1,6.9-16.1,15.2-16.1c3.1,0,4.7-1.5,6.1-5.3
	C106.4,114.8,111.5,110.3,120.4,109.9z M177.8,135.5c-0.2-0.8-0.5-1.6-0.7-2.3c-0.3-0.2-0.6-0.5-0.9-0.5c-2,0.1-4,0.1-5.9,0.3
	c-14.9,1.5-28.9-1.8-42-12.4c-2.1-1.7-4.5-2.8-6.9-3.6c-5.9-2.1-12.5,2.7-14.2,10.9c-0.4,1.8,0.7,5.2,1.9,6.6
	c8.7,10.3,18.8,16.2,30.2,17.3c4.3,0.4,6.5,4.1,6,9.5c-0.2,1.9-3.4,4.3-5.4,4.7c-16.7,2.9-33.3,3.2-49.4-5c-2.3-1.2-4.6-3.1-6.3,1.6
	c-3,8.2-2.3,16.8,2.6,22.8c5.3,6.4,10.5,10.5,18.6,7.4c16.8-6.5,31.6-18,46.3-30.2c-1.2-2-3.1-4.3-2.8-5c0.8-2,2.2-3.8,3.7-4.9
	C160.9,146.8,169.4,141.2,177.8,135.5z M105.6,200.9c3,5.2,7.1,6.9,12.6,3.1c4.5-3.1,8-3.2,12.3,1.1c5.1,5.1,10.5,3.5,14.4-3.4
	c1.9-3.4,3.4-7.4,5.2-11c5.8-11.7,11.7-23.3,17.6-34.9c1.1-2.2,2.6-4.1,3.9-6.2c-0.2-0.2-0.4-0.5-0.6-0.7
	c-4.8,3.3-9.7,6.5-15.1,10.1c3.5,4.3,2.6,6.8-0.8,9.1c-6.5,4.6-12.6,10.1-19.1,14.4C126,189.1,115.7,194.9,105.6,200.9z
	 M133.1,158.7c-10.5-3-19.3-10-27.4-19.5c-4.2-5-9.9-6.3-14.8-1.9c-4,3.6-5.1,9.8-4.3,15.3C102,160,117.4,162.2,133.1,158.7z"/>
<path class="st2" d="M238.2,170.2c10.5,1.3,22.2,13,24.8,26.3c0.7,3.4,0.6,8.4-0.8,10.8c-1,1.8-5,1.6-7.2,0.4
	c-9.5-5.2-18.9-10.8-28-17c-5.3-3.6-5.5-8.3-0.6-12.9C230,174.5,234.3,172.7,238.2,170.2z M254.2,189.7c-2.9-6.3-8-8.6-12.9-10.7
	c-1.4-0.6-4.3,1.6-4.8,2.2c-1.8,2.5-2.1,3.3-1.7,4.7c0.3,1.5,2,2.8,3.4,4.2c1.4-1.5,2.7-3,4.2-4.4c1-0.9,2.1-1.5,3.1-2.3
	c0.2,1.8,0.7,3.5,0.6,5.3c0,2.3-0.5,4.5-0.8,7.5c2.5,0.2,3.1,3.6,6.4,0C253.2,194.8,254.5,193.6,254.2,189.7z"/>
<path class="st3" d="M328.1,203.6c-0.1,9.2-5.1,16.2-11.7,16.1c-6.5,0-12.7-8.6-12.9-17.8c-0.1-7.7,6.1-15.4,12.4-15.5
	C322.8,186.4,328.1,193.9,328.1,203.6z M323.3,202.8c-0.1-5.6-3.4-10.1-7.3-10c-3.9,0.1-7.7,5-7.6,9.7c0.1,5.8,4,11,8,10.9
	C320.4,213.2,323.4,208.6,323.3,202.8z"/>
<path class="st3" d="M244,137.1c-6.8,0.1-12.1-7-12.2-16.1c-0.1-9,5.1-16.9,11.1-17c6.6-0.2,12.8,8.2,12.8,17.3
	C255.8,130.3,250.8,137,244,137.1z M244,131c3.8,0,7-4.3,7.1-9.5c0.1-5.2-4.2-11.1-8-10.9c-3.4,0.1-6.6,5.2-6.5,10.4
	C236.7,126.2,240.2,131,244,131z"/>
<path class="st3" d="M141.4,260.5c6.7,0.2,11.8,7.2,11.7,16.1c-0.1,8-6.2,18.2-10.9,18.2c-6.8-0.1-13.2-8.9-13.1-18.2
	C129.1,267.6,134.6,260.4,141.4,260.5z M148.7,276.5c0.1-5.1-2.9-9-7-9.3c-4.6-0.3-8.2,3.8-8.2,9.2c0,5.7,4.1,11.7,8.2,11.7
	C144.7,288.1,148.5,281.8,148.7,276.5z"/>
<path class="st2" d="M190.2,276.5c6.6-8.2,22.7-12,35.5-7.2c3.2,1.2,7.5,3.9,8.8,6.4c1,1.8-1.3,5.1-3.4,6.3
	c-9.4,5.3-19.1,10.4-29.2,14.8c-5.9,2.6-10,0.3-11.3-6.3C189.5,285.8,190.2,281.2,190.2,276.5z M215.2,273.2
	c-6.9-0.9-11.5,2.2-15.9,5.3c-1.2,0.9-0.9,4.5-0.6,5.2c1.2,2.8,1.7,3.5,3.1,4c1.5,0.5,3.4-0.2,5.4-0.7c-0.5-2-1.1-3.9-1.5-5.9
	c-0.3-1.3-0.2-2.6-0.3-3.9c1.6,0.7,3.4,1.3,4.8,2.3c1.9,1.2,3.6,2.8,5.9,4.6c1.5-2,4.7-0.8,3.4-5.4
	C218.9,276.8,218.7,275,215.2,273.2z"/>
<path class="st3" d="M196.6,215.1c3.9,2.8,4.2,9,0.6,14.3c-3.2,4.8-10.9,8.4-13.7,6.5c-4-2.7-4.4-10.5-0.7-16.1
	C186.4,214.5,192.6,212.3,196.6,215.1z M194.6,227.6c2.1-3,1.9-6.5-0.5-8.4c-2.6-2-6.4-1-8.6,2.3c-2.3,3.4-2.2,8.7,0.3,10.2
	C187.6,232.9,192.4,230.7,194.6,227.6z"/>
<path class="st3" d="M279.8,245.9c3.9,2.8,4.2,9,0.6,14.3c-3.2,4.8-10.9,8.4-13.7,6.5c-4-2.7-4.4-10.5-0.7-16.1
	C269.6,245.2,275.8,243.1,279.8,245.9z M277.8,258.3c2.1-3,1.9-6.5-0.5-8.4c-2.6-2-6.4-1-8.6,2.3c-2.3,3.4-2.2,8.7,0.3,10.2
	C270.9,263.7,275.6,261.5,277.8,258.3z"/>
<path class="st3" d="M291.3,140.2c3.4-0.3,6.4,3.1,6.8,7.6c0.4,4.1-2.3,9.6-4.7,9.8c-3.5,0.3-7.2-3.9-7.6-8.6
	C285.4,144.4,287.9,140.5,291.3,140.2z M295.8,148c-0.2-2.6-1.9-4.5-4-4.4c-2.3,0.1-4,2.3-3.7,5.1c0.3,2.9,2.7,5.8,4.8,5.6
	C294.4,154.1,296,150.7,295.8,148z"/>
<path class="st3" d="M91.3,238.9c3.9,2.8,4.2,9,0.6,14.3c-3.2,4.8-10.9,8.4-13.7,6.5c-4-2.7-4.4-10.5-0.7-16.1
	C81.1,238.3,87.3,236.1,91.3,238.9z M89.3,251.4c2.1-3,1.9-6.5-0.5-8.4c-2.6-2-6.4-1-8.6,2.3c-2.3,3.4-2.2,8.7,0.3,10.2
	C82.3,256.7,87.1,254.5,89.3,251.4z"/>
<path class="st3" d="M-8.7,348.6l-0.6-0.7c-1.5-1.9-1.2-4.6,0.7-6.1l53.9-43.1c1.9-1.5,4.6-1.2,6.1,0.7l0.6,0.7
	c1.5,1.9,1.2,4.6-0.7,6.1l-53.9,43.1C-4.5,350.7-7.2,350.4-8.7,348.6z"/>
<path class="st3" d="M13.5,354.5l-0.6-0.7c-1.5-1.9-1.2-4.6,0.7-6.1l53.9-43.1c1.9-1.5,4.6-1.2,6.1,0.7l0.6,0.7
	c1.5,1.9,1.2,4.6-0.7,6.1l-53.9,43.1C17.7,356.7,15,356.3,13.5,354.5z"/>
<path class="st3" d="M293.5,63.7l-0.6-0.7c-1.5-1.9-1.2-4.6,0.7-6.1l53.9-43.1c1.9-1.5,4.6-1.2,6.1,0.7l0.6,0.7
	c1.5,1.9,1.2,4.6-0.7,6.1l-53.9,43.1C297.8,65.8,295,65.5,293.5,63.7z"/>
<path class="st3" d="M315.7,69.6l-0.6-0.7c-1.5-1.9-1.2-4.6,0.7-6.1l53.9-43.1c1.9-1.5,4.6-1.2,6.1,0.7l0.6,0.7
	c1.5,1.9,1.2,4.6-0.7,6.1l-53.9,43.1C319.9,71.7,317.2,71.4,315.7,69.6z"/>
</svg>
