<?xml version="1.0" encoding="utf-8"?>
<!-- Generator: Adobe Illustrator 22.1.0, SVG Export Plug-In . SVG Version: 6.00 Build 0)  -->
<svg version="1.1" id="Layer_1" xmlns="http://www.w3.org/2000/svg" xmlns:xlink="http://www.w3.org/1999/xlink" x="0px" y="0px"
	 viewBox="0 0 512 512" style="enable-background:new 0 0 512 512;" xml:space="preserve">
<g>
	<g>
		<path d="M255.2,512C255.2,512,255.2,512,255.2,512c0.1,0,0.1,0,0.1,0c35.7,0.2,69.3-13.6,94.9-38.9c25.7-25.4,39.9-59.1,40-94.9
			c0.1-22.4-5.5-44.5-16-64.1c-19.6-36.4-19.6-79.9,0-116.4c10.5-19.6,16.1-41.7,16-64.1c-0.1-35.8-14.3-69.5-40-94.9
			C324.7,13.6,291-0.2,255.3,0c0,0-0.1,0-0.1,0c0,0,0,0,0,0c-0.1,0-0.3,0-0.4,0c-35.6,0.3-69,14.4-94.1,39.7
			c-25.1,25.3-38.9,58.9-38.9,94.5c0,21.8,5.4,43.5,15.5,62.7c19.6,37,19.6,81.2,0,118.2c-10.1,19.2-15.5,40.8-15.5,62.7
			c0,35.6,13.8,69.2,38.9,94.5c25.1,25.3,58.5,39.4,94.1,39.7C254.9,512,255.1,512,255.2,512z M369.1,140.1c0.2,0.4,0.4,0.8,0.6,1.2
			c-0.9,14.7-4.7,29.2-11.1,42.5c-6.6-5.4-15.1-10.2-25.2-14.1c1.8-11.5,2.8-23.4,2.8-35.4c0-0.1,0-0.3,0-0.4
			c0-11.8-1-23.5-2.8-34.7C350,109.7,362.7,123.8,369.1,140.1z M335.9,53.4c12.7,12.6,22.1,27.5,27.7,43.8
			c-10.2-9.7-22.5-17.9-36.3-24.4c-4.5-14.7-10.5-28-17.9-39.1C319,38.9,327.9,45.5,335.9,53.4z M282.5,32.9
			c7.9,7.8,14.7,18.4,20,30.9c-11.6-3.2-23.7-5.2-36.3-6V22.2C271.8,24.1,277.2,27.7,282.5,32.9z M245.8,22.2v35.6
			c-12.5,0.7-24.6,2.6-36.2,5.8C218.6,42.4,231.4,27.1,245.8,22.2z M202.3,33.9c-7.3,10.9-13.3,24-17.8,38.7
			c-3.9,1.8-7.8,3.8-11.5,5.9c-9.2,5.3-17.4,11.4-24.6,18.3C158,69.8,177.4,47.4,202.3,33.9z M142.4,141.2c0.2-0.4,0.4-0.7,0.5-1.1
			c6.3-16.2,18.9-30.3,35.7-40.9c-1.7,11.1-2.7,22.9-2.7,35.1c0,12,0.9,23.9,2.8,35.3c-10.1,4-18.6,8.7-25.2,14.1
			C147.1,170.5,143.3,156,142.4,141.2z M202.3,183.4c6.4-1.6,13.2-3,20.4-4c5.6-0.8,9.5-6,8.7-11.5c-0.8-5.6-6-9.5-11.5-8.7
			c-7.6,1.1-14.8,2.5-21.5,4.2c-1.4-9.5-2.1-19.3-2.1-29.1c0-16.5,2-32.3,5.5-46.6c13.5-5.1,28.4-8.4,44-9.4v167.6h-32.7
			c-0.8-19.5-3.8-38.8-9.1-56.6C203.4,187.3,202.8,185.4,202.3,183.4z M172,245.8c-1-14.5-4.2-28.8-9.5-42.6
			c4.2-4.9,11.3-9.4,20.4-13.3c0.5,1.7,0.9,3.4,1.4,5.1c4.8,16,7.5,33.3,8.3,50.8L172,245.8L172,245.8z M266.2,245.8V78.2
			c15.7,1,30.6,4.3,44.1,9.4c3.5,14.3,5.4,30,5.4,46.2c0,0.1,0,0.3,0,0.4c0,9.9-0.7,19.7-2.1,29.2c-7.1-1.8-14.6-3.2-22.6-4.3
			c-5.6-0.8-10.7,3.1-11.5,8.7c-0.1,0.5-0.1,0.9-0.1,1.4c0,5,3.7,9.4,8.8,10.1c7.5,1,14.7,2.5,21.4,4.2c-0.6,2.2-1.2,4.4-1.8,6.5
			c-5.3,17.6-8.4,36.6-9.2,55.8L266.2,245.8L266.2,245.8z M319.1,245.8c0.8-17.3,3.5-34.4,8.2-49.9c0.6-2,1.2-3.9,1.7-6
			c9,3.8,16,8.3,20.3,13.1c-5.5,13.8-8.8,28.2-9.8,42.7H319.1z M335.9,458.6c-8,7.9-16.9,14.4-26.5,19.6
			c7.4-11.1,13.4-24.4,17.9-39.1c13.8-6.4,26.2-14.7,36.3-24.4C358,431.1,348.6,446.1,335.9,458.6z M266.2,374.4v-19.3
			c17-0.7,33.1-2.9,47.4-6.5c1.4,9.5,2.1,19.3,2.1,29.2c0,0.1,0,0.3,0,0.4c0,16.2-1.9,31.9-5.4,46.2c-16.7,6.4-35.6,9.9-55.4,9.7
			c-18.9-0.1-37.1-3.6-53.2-9.7c-3.5-14.3-5.5-30.1-5.5-46.6c0-9.8,0.7-19.6,2-29.1c14.2,3.5,30.3,5.8,47.5,6.4v19.3
			c0,5.6,4.6,10.2,10.2,10.2C261.6,384.6,266.2,380,266.2,374.4z M369.6,370.7c-0.2,0.4-0.4,0.8-0.6,1.2c-6.3,16.3-19,30.4-35.7,41
			c1.8-11.2,2.8-22.8,2.8-34.6c0-0.1,0-0.3,0-0.4c0-12-0.9-24-2.8-35.5c10-4,18.6-8.7,25.2-14.1
			C364.9,341.4,368.7,355.9,369.6,370.7z M339.5,266.2c1,14.5,4.3,28.9,9.8,42.7c-4.1,4.5-11,9.1-20.3,13.1c-0.5-2-1.1-4-1.7-5.9
			c-4.7-15.5-7.4-32.5-8.2-49.9H339.5z M298.6,266.2c0.8,19.2,3.9,38.2,9.2,55.8c0.6,2.1,1.3,4.3,1.8,6.5
			c-12.5,3.2-27.1,5.5-43.4,6.2v-68.5L298.6,266.2L298.6,266.2z M162.5,308.8c5.3-13.8,8.5-28.1,9.5-42.6h20.7
			c-0.8,17.5-3.5,34.8-8.3,50.8c-0.5,1.7-1,3.4-1.4,5.2C173.5,318.1,166.6,313.5,162.5,308.8z M213.1,266.2h32.7v68.5
			c-16.4-0.7-31.1-2.9-43.5-6.1c0.5-2,1-3.9,1.6-5.8C209.2,305,212.3,285.7,213.1,266.2z M142.9,371.9c-0.1-0.4-0.3-0.8-0.5-1.1
			c0.9-14.7,4.7-29.2,11.1-42.5c6.6,5.5,15.1,10.2,25.2,14.2c-1.8,11.5-2.8,23.4-2.8,35.3c0,12.2,0.9,23.9,2.7,35.1
			C161.8,402.2,149.2,388.1,142.9,371.9z M148.5,415.2c7.2,6.8,15.4,13,24.6,18.3c3.7,2.1,7.5,4.1,11.5,5.9
			c4.5,14.7,10.5,27.9,17.8,38.7C177.4,464.6,158,442.2,148.5,415.2z M209.6,448.4c14.3,3.9,29.5,6,45.1,6.1
			c16.6,0.1,32.7-2.1,47.7-6.3c-5.3,12.5-12.1,23.1-20,30.9c-8.5,8.4-17.5,12.6-26.7,12.5c-0.1,0-0.2,0-0.3,0
			C237.2,491.3,220.6,474.3,209.6,448.4z"/>
	</g>
</g>
<g>
	<g>
		<path d="M266.2,410.5v-2.3c0-5.6-4.6-10.2-10.2-10.2c-5.6,0-10.2,4.6-10.2,10.2v2.3c0,5.6,4.6,10.2,10.2,10.2
			C261.6,420.7,266.2,416.1,266.2,410.5z"/>
	</g>
</g>
</svg>
