<svg xmlns="http://www.w3.org/2000/svg" viewBox="0 0 659.25 653.45">
  <path d="M243.41 490.12c0-16.71-.27-33 .16-49.32a38 38 0 0 1 3.5-15.28c13.44-27.45 27.32-54.68 41.11-82 2.63-5.21 6.42-9 12.82-8.56 9.15.67 13.84 8.3 10.53 17.8-7 20.07-14.4 40-21.44 60-4.1 11.7-9.61 23.07-9.48 35.9 0 1.16-.08 2.33 0 3.49 0 .41.4.79 1.12 2.1 1-2.2 1.78-3.7 2.36-5.28 2.44-6.53 4.65-13.15 7.25-19.61 3.58-8.9 11.24-13.39 19.13-11.55 8.94 2.09 12.22 8.94 10.92 19-2 15.15-2.87 30.17-5.41 45.24-1.46 8.69-3.09 17.35-4.43 26.05-1.19 7.69-5.31 13.14-12 16.72-68.62 36.59-138 71.66-210.2 100.67-11.27 4.52-22.29 9.65-34.76 9.9-37.52.74-61.7-32.05-52.64-66.09 21.26-79.87 43.54-159.47 66.14-239 14.43-50.79 49.3-81.37 99.28-95.82 1.27-.37 2.55-.74 3.84-1.05 6.62-1.6 8.09-.88 10.55 5.49 17.34 44.92 48.27 76.13 93.62 92.79 1.24.46 2.45 1 3.66 1.56.45.2.86.48 1.83 1-1 2-1.9 4.07-3 6.05-11.36 21.25-22.32 42.72-34.22 63.66-11.53 20.31-14.37 42.21-14.28 64.92v8a8.64 8.64 0 0 1-.32 1.37c-14.17 4-28.53 8-42.89 12-7.83 2.18-15.66 4.35-23.51 6.46s-11.84-1.42-10.21-9.37c4.11-20 8.54-39.92 12.84-59.88.25-1.13.6-2.25.83-3.39a11.65 11.65 0 0 0-7.8-13.83c-5.89-1.93-11.76.67-13.95 7.05-3.51 10.19-6.51 20.56-9.56 30.9-4.27 14.49-8.4 29-12.57 43.55a30.12 30.12 0 0 0-.93 3.86c-2 12.28 6.38 20 18.47 17.33q46.92-10.56 93.84-21.05c3.02-.57 6.13-1.08 9.8-1.78z"/>
  <path d="M333.13.03c45.44 2.17 80.52 23.23 106.48 59.72 24.69 34.69 34.25 73.81 30.86 116.11-3.5 43.49-20 81.15-52.21 111-26.83 24.87-58.8 37.3-95.6 35.38-29.93-1.56-56.23-12.88-78.63-32.68-32.81-29-50.36-66-54.75-109.22-4.69-46.24 5.77-88.68 34.23-125.83 22.92-29.91 53-48.5 90.69-53.8a93.57 93.57 0 0 1 9.47-.68c3.19-.09 6.31 0 9.46 0zM302.86 543.83a51.6 51.6 0 0 1 48.85.44c18.15 10.08 37.82 17.66 56.56 27 30.59 15.13 61.69 29.43 92.73 43.8 6.21 2.88 9.11 6.76 8.28 13.5-.42 3.46-.43 7-1 10.4-1.33 7.52-6.4 12.42-14 13.57a70 70 0 0 1-10.42.86q-156.72.06-313.43 0h-4c-14.58-.47-20.48-6.12-21.45-20.59-.13-2 .11-4-.08-6-.56-5.59 2-8.86 7-11.24 49.72-23.46 99.46-46.9 149-70.79.62-.28 1.27-.61 1.96-.95z"/>
  <path d="M415.86 489.78c0-16.7.28-33-.16-49.32a38.15 38.15 0 0 0-3.49-15.28c-13.47-27.44-27.35-54.68-41.14-81.92-2.63-5.2-6.42-9-12.82-8.55-9.16.67-13.84 8.3-10.53 17.8 7 20.06 14.39 40 21.43 60 4.11 11.7 9.61 23.06 9.48 35.9 0 1.16.09 2.33 0 3.49 0 .41-.4.79-1.11 2.09-1-2.2-1.78-3.7-2.37-5.27-2.43-6.53-4.64-13.15-7.24-19.61-3.59-8.9-11.25-13.39-19.13-11.55-9 2.09-12.22 8.94-10.92 19 1.95 15.14 2.87 30.17 5.4 45.24 1.47 8.69 3.09 17.35 4.44 26.05 1.18 7.69 5.31 13.13 12 16.72 68.66 36.6 138 71.69 210.25 100.69 11.26 4.52 22.28 9.65 34.75 9.89 37.52.74 61.7-32 52.64-66.08-21.25-79.87-43.54-159.47-66.13-239-14.44-50.81-49.3-81.36-99.28-95.81-1.28-.37-2.55-.74-3.84-1-6.62-1.6-8.09-.88-10.55 5.48-17.35 44.93-48.27 76.13-93.62 92.79-1.25.46-2.46 1-3.67 1.57-.45.2-.86.48-1.83 1 1 2 1.9 4.07 3 6 11.35 21.25 22.32 42.72 34.21 63.67 11.5 20.33 14.33 42.23 14.23 64.93 0 2.67 0 5.33.05 8a8.74 8.74 0 0 0 .33 1.36l42.88 12q11.74 3.27 23.52 6.46c7.76 2.09 11.83-1.42 10.2-9.37-4.11-20-8.53-39.93-12.84-59.88-.24-1.14-.59-2.25-.83-3.39a11.68 11.68 0 0 1 7.8-13.84c5.9-1.92 11.76.67 14 7.05 3.5 10.2 6.51 20.57 9.55 30.91 4.28 14.49 8.4 29 12.57 43.54a32.87 32.87 0 0 1 .94 3.86c2 12.29-6.38 20.06-18.48 17.34q-46.93-10.58-93.86-21.05c-3.08-.69-6.19-1.2-9.83-1.91z"/>
</svg>
