<svg xmlns="http://www.w3.org/2000/svg" viewBox="0 0 389.03 473.47"><title>pray</title><path d="M-338.47-8.71l-36.85,35a9.19,9.19,0,0,0-.4,12.92c7,7.49,13.59,14.64,20.25,21.77q34.82,37.23,69.64,74.43c8.37,9,14.68,19.05,15.44,31.66,1.53,25.11-19.11,42.54-44.1,37-56-12.52-112-25.32-168-38h-.07a7.88,7.88,0,0,0-9,4.68,42.85,42.85,0,0,1-2.61,5.41,33.2,33.2,0,0,1-37.55,15,33.38,33.38,0,0,1-24.46-31.71c-.14-11.66.13-23.34-.2-35-.68-24.29,18.55-41.24,42.41-36.27,29.47,6.15,58.78,13.12,88.16,19.73h.05a2.11,2.11,0,0,0,1.91-3.59l-3.94-3.75c-16.61-15.88-33.36-31.61-49.77-47.7-9.1-8.93-14.61-20.25-18.38-32.26-4.65-14.77-2-28.71,8.41-40.12,9.75-10.66,20.68-20.25,31.07-30.34,23.9-23.21,47.93-46.28,71.61-69.71,17.48-17.29,38.55-20.78,61.39-16.19,5.56,1.12,11,5.45,15.34,9.48,14.87,13.65,22,32.25,30.56,49.89l5.29,10.93A3.49,3.49,0,0,0-267-64.22c5.14-3.87,10-7.59,15-11a33.08,33.08,0,0,1,48.09,11.59c6.68,12.72,4,27.66-7.33,36.49-18.23,14.27-36.58,28.41-55.25,42.09-19,13.94-46.76,7.7-58.61-12.78C-326.88-1-328.48-4.13-330-7.2A5.34,5.34,0,0,0-338.47-8.71Z" transform="translate(556.38 268.37)"/><path d="M-328.18-187.65a80.16,80.16,0,0,1,80.52-80.72A80.09,80.09,0,0,1-167.34-188a80.33,80.33,0,0,1-80.47,80.32C-292-107.72-328.17-143.71-328.18-187.65Z" transform="translate(556.38 268.37)"/></svg>