<svg xmlns="http://www.w3.org/2000/svg" viewBox="0 0 147.94 163.76"><defs><style>.a{fill:#FF7400;}</style></defs><title>process</title><path class="a" d="M712.6-128.35c-3.08,0-6.14-.3-9.21-.4-1.31,0-1.91.47-2,1.72a45.53,45.53,0,0,0,2.25,16c.47,1.51,1.71,2.15,3.2,2.49q22.64,5.16,45.26,10.38a8.59,8.59,0,0,1,4.07,1.87c2.31,2.12,2.85,5.6,1.38,9a7.2,7.2,0,0,1-7.41,4.59,77.27,77.27,0,0,1-9.61-2.09c-11.4-2.66-22.79-5.38-34.19-8-.62-.15-1.46-.58-1.9-.1s.19,1.21.39,1.81c.69,2.11,1.78,4.06,2.23,6.27.8,3.95-2.37,8.46-6.39,8.78-3.65.29-7.28-.25-10.93-.36-4.58-.13-9.14-.49-13.72-.73A56.12,56.12,0,0,1,664.1-79c-3.25-.89-5-3.2-5.32-7a7.83,7.83,0,0,1,3.84-7.54,5.09,5.09,0,0,1,3.63-.5c5.5,1.25,11.09,1.39,16.69,1.56,1.15,0,2.31.1,3.46.13.92,0,1.3-.31.72-1.2a7.57,7.57,0,0,0-.42-.67c-4.3-5.4-5.62-12-7.25-18.42a49.43,49.43,0,0,1-1-10.47c-.14-4-.62-8-.7-12-.12-6.3,4.5-10.77,10.83-10.85a12.11,12.11,0,0,1,8.36,2.9,5.65,5.65,0,0,0,3.68,1.36c4.36.08,8.71.23,13.06.54a2.92,2.92,0,0,0,2-.56c1.64-1.08,3.6-1.23,5.47-1.52a24.3,24.3,0,0,1,5.32-.29A5.07,5.07,0,0,0,730.3-145q8.87-7.9,17.81-15.74a4.14,4.14,0,0,1,6.25.26c3.48,3.57,6.85,7.24,10.37,10.77a4.45,4.45,0,0,1-.21,6.48c-6.19,5.28-12.27,10.71-18.47,16-3,2.53-4.91,2.32-7.6-.55s-5.62-5.85-8.2-9c-1.78-2.13-3.9-2.56-6.41-2.29-2.13.23-2.13.22-1.57,2.17a8.43,8.43,0,0,1,.11,4,5.55,5.55,0,0,1-5.38,4.54C715.53-128.3,714.06-128.35,712.6-128.35Z" transform="translate(-618.09 239.75)"/><path class="a" d="M693.62-171.58c0,2.55-1.11,4-3.13,4.68-7.62,2.38-15.24,4.79-22.87,7.13a4.94,4.94,0,0,0-3,2.4,32,32,0,0,1-5.34,7,11.22,11.22,0,0,1-1.09,1c-1.23.91-2.39.89-3.24,0a2.34,2.34,0,0,1,.3-3.25,31,31,0,0,0,5.32-6.81,4.21,4.21,0,0,0,.36-3.45c-1.3-4.38-2.56-8.77-3.75-13.18-.9-3.31,0-5.07,3.23-6.21,4.57-1.59,9.19-3,13.79-4.5,3.25-1,6.5-2.12,9.77-3.1,2.85-.85,4.87.33,5.65,3.22,1.11,4.07,2.18,8.15,3.26,12.22A26.2,26.2,0,0,1,693.62-171.58Z" transform="translate(-618.09 239.75)"/><path class="a" d="M697.67-239.75a3.71,3.71,0,0,1,3.4,2.36c1.92,4.83,3.81,9.66,5.6,14.53.8,2.2-.26,4.19-2.51,5.16q-10.5,4.56-21,9.08a5.28,5.28,0,0,0-2.94,2.89,29.24,29.24,0,0,1-4.64,7.43,7,7,0,0,1-.94.94,2.09,2.09,0,0,1-2.7.14,2.08,2.08,0,0,1-.49-2.67,4.56,4.56,0,0,1,.83-1.19,27.17,27.17,0,0,0,4-6.73,3.46,3.46,0,0,0,0-2.82c-1.62-3.94-3.2-7.9-4.79-11.85a13.09,13.09,0,0,1-.6-1.62,3.93,3.93,0,0,1,1.86-4.93,26.67,26.67,0,0,1,4.06-2L695-239A6.46,6.46,0,0,1,697.67-239.75Z" transform="translate(-618.09 239.75)"/><path class="a" d="M636.58-165a20,20,0,0,0-.54-6.8,3.17,3.17,0,0,0-1.54-2.06c-2.94-1.76-5.87-3.55-8.79-5.32-2.69-1.64-3.18-3-1.7-5.74q4.61-8.35,9.38-16.61a3.08,3.08,0,0,1,4.67-1.17q5.13,3.13,10.16,6.4c1.74,1.13,2,2.81.87,4.78-3,5.28-6.05,10.57-9.12,15.83a4.38,4.38,0,0,0-.47,3.2,23,23,0,0,1,.52,7.54c-.17,1.08-.57,1.91-1.77,2A1.85,1.85,0,0,1,636.58-165Z" transform="translate(-618.09 239.75)"/><path class="a" d="M618.09-142.91a2.47,2.47,0,0,1,1.7-2.7c3-1.09,6-2.18,9-3.19,1.69-.56,2.92.09,3.6,1.79,1.79,4.44,3.59,8.88,5.33,13.34a3.88,3.88,0,0,0,2.08,2.27,18.72,18.72,0,0,1,4.64,3.1c.7.65,1.25,1.42.52,2.3s-1.59.38-2.31-.22l-.51-.42c-2.56-2.21-5.2-3.4-8.54-1.42a30.51,30.51,0,0,1-5.21,2c-2.21.78-3.38.36-4.29-1.79-2-4.7-3.89-9.43-5.81-14.15A4.65,4.65,0,0,1,618.09-142.91Z" transform="translate(-618.09 239.75)"/><path class="a" d="M693.2-160.61c0,7-3.9,12.1-10.21,13.55a12,12,0,0,1-12.84-5.25c-.59-.88-1-1.86-1.64-2.74s-.45-1.12.54-1.43c5.5-1.71,11-3.5,16.46-5.25q2.72-.89,5.45-1.71c1.74-.53,2-.3,2.15,1.47C693.14-161.44,693.18-160.91,693.2-160.61Z" transform="translate(-618.09 239.75)"/></svg>