<svg xmlns="http://www.w3.org/2000/svg" viewBox="0 0 307.1 361.3"><defs><style>.a{fill:#ef8829;}</style></defs><title>song</title><path class="a" d="M246,236.8l.3-2.7Z" transform="translate(-23.9 -2)"/><path d="M331,11.61a9.77,9.77,0,0,0-13.76-8.76l-194,86.41a9.76,9.76,0,0,0-5.79,8.79c0,.59,0,160.47,0,160.47a48.48,48.48,0,0,0-27.72-8.36c-16.4,0-33.1,7.3-45.83,20C20.08,294,17.13,329.71,37.28,349.86,46,358.53,58,363.3,71.11,363.3c16.41,0,33.11-7.3,45.84-20,11.26-11.27,18.27-25.55,19.74-40.23a57,57,0,0,0,.28-6.75c0-.13,0-111.67,0-111.67l174.45-77.52V223.34A48.46,48.46,0,0,0,283.71,215c-16.41,0-33.11,7.3-45.84,20-23.78,23.78-26.73,59.52-6.58,79.66,8.67,8.67,20.68,13.45,33.83,13.45,16.41,0,33.11-7.3,45.84-20,13.27-13.28,20.13-30.28,20-46.22C331,261.5,331,12.23,331,11.61ZM117.22,301.1c-1,10.2-6,20.26-14.11,28.34-9.08,9.08-20.75,14.29-32,14.29-5.6,0-13.62-1.33-20-7.71-12.52-12.52-9.56-35.84,6.59-52,9.08-9.09,20.74-14.3,32-14.3,5.61,0,13.63,1.34,20,7.71C115.49,283.24,118.17,291.64,117.22,301.1ZM137,163.21V104.55l174.45-77.7V85.7m-14.3,208.57c-9.08,9.08-20.75,14.29-32,14.29-5.6,0-13.62-1.34-20-7.71-12.52-12.52-9.56-35.85,6.58-52,9.09-9.08,20.75-14.29,32-14.29,5.61,0,13.63,1.33,20,7.71C316.22,254.79,313.27,278.11,297.12,294.27Z" transform="translate(-23.9 -2)"/></svg>