<?xml version="1.0" encoding="utf-8"?>
<!-- Generator: Adobe Illustrator 22.1.0, SVG Export Plug-In . SVG Version: 6.00 Build 0)  -->
<svg version="1.1" id="Capa_1" xmlns="http://www.w3.org/2000/svg" xmlns:xlink="http://www.w3.org/1999/xlink" x="0px" y="0px"
	 viewBox="0 0 364.5 364.5" style="enable-background:new 0 0 364.5 364.5;" xml:space="preserve">
<style type="text/css">
	.st0{fill:#EF8829;}
	.st1{stroke:#000000;stroke-width:3;stroke-miterlimit:10;}
</style>
<path class="st0" d="M246,248c0.1-1,0.2-2,0.3-3C246.2,245.9,246.1,247,246,248z"/>
<path class="st0" d="M246,252.5c0.1-1,0.2-2,0.3-3C246.2,250.4,246.1,251.5,246,252.5z"/>
<path class="st1" d="M352,98.6c-4.6-3.1-10-4.9-14.8-7.8c-5.4-3.1-10.6-6.5-16.3-9c-13.6-6-28.2-9.6-42.3-13.8
	c-13.8-4.3-27.7-8.3-41.6-12.1c-16.6-4.6-33.2-9.1-49.8-13.7c-11.4-3.1-26.1-10.7-38.1-7.5c-18.4,4.8-28.8,24.6-31.6,44.6
	c-0.5,1.7-0.9,3.4-1.3,5.2c-2.6,12.1-2.6,23.3,2.6,32c-9-3-18.7-6.1-27.1-3.8c-18.4,4.8-28.8,24.6-31.6,44.6
	c-0.5,1.7-0.9,3.4-1.3,5.2c-2.5,11.5-2.6,22,1.8,30.5c-8.3-2.7-17-5.1-24.6-3c-18.4,4.8-28.8,24.6-31.6,44.6
	c-0.5,1.7-0.9,3.4-1.3,5.2C-0.7,257.4,1,273,16.5,281.9c14,8.1,30,8.3,45.1,11.7c26.1,5.8,52.1,15.4,77.6,23.8
	c13.4,4.4,26.6,9.6,40,13.7c10.4,3.1,24.2,7.9,34.9,4.2c20.5-7.1,34.5-33.2,35.6-56.1c0.5-9.7-2.1-17.8-8.8-23.5
	c9.3,2.7,20.1,5.3,28.9,2.4c20.5-7.1,34.5-33.2,35.6-56.1c0.5-10.6-2.7-19.5-10.9-25.1c-0.1-0.1-0.3-0.2-0.4-0.3
	c10.1,3.1,23,7.1,33.1,3.6c20.5-7.1,34.5-33.2,35.6-56.1C363.4,113.1,360.2,104.3,352,98.6z M341,103c2.9,1.3,5.8,2.9,8.2,5.3
	c1.7,1.7,2.8,3.8,3.5,6.2c-0.4,0.8-0.7,1.7-1.1,2.5c-0.3,0.6-0.6,1.2-0.9,1.8c-4.1,4.4-9,8.1-13.7,12.1
	C339.7,121.6,341.2,111.7,341,103z M221.7,62.4c15.4,4.2,30.8,8.3,46.2,12.7c-1.3,11.4-2.7,22.4-1.6,34c1,10.1,3.1,20.1,5.2,30
	c1.4,6.9,3.4,16.5,7.6,23.1c-5.6-2-11.2-4.2-16.8-6.3c-22.1-8.4-44.4-16.1-66.9-23.2c-13.8-4.4-27.5-6.9-41.5-9.9
	c-3-0.7-6.4-1.5-9.8-2.5c4.3-12.8,13.8-22.5,23.3-31.4c15.6-14.6,32.5-22.6,51.8-27.3C220,62,220.8,62.2,221.7,62.4z M228,258.2
	c2.9,1.3,5.8,2.9,8.2,5.3c1.7,1.7,2.8,3.8,3.5,6.2c-0.4,0.8-0.7,1.7-1.1,2.5c-0.3,0.6-0.6,1.2-0.9,1.8c-4.1,4.4-9,8.1-13.7,12.1
	C226.7,276.8,228.2,266.9,228,258.2z M204.9,233.9c-22.1-8.4-44.4-16.1-66.9-23.2c-13.8-4.4-27.4-6.9-41.5-9.9
	c-3-0.7-6.4-1.5-9.8-2.5c4.3-12.8,13.8-22.5,23.3-31.4c15.6-14.6,32.5-22.6,51.8-27.3c0.8,0.2,1.7,0.4,2.5,0.7
	c15.4,4.2,30.8,8.3,46.2,12.7c-1.3,11.4-2.7,22.4-1.6,34c1,10.1,3.1,20.1,5.2,30c1.4,6.9,3.4,16.5,7.6,23.1
	C216.1,238.2,210.5,236.1,204.9,233.9z M136.8,51.1c4.8-4.6,10.9-7.2,18.8-6.4c10.2,1.1,20.7,5.5,30.7,8.2c6.3,1.7,12.7,3.5,19,5.2
	c-15.9,4.2-31.4,16.1-42.9,26.9c-6.1,5.7-21.8,20.7-24.2,33.4c-8.1-3.4-15-9.1-15.4-19.8C122.2,81,126.9,63.8,136.8,51.1z
	 M79.4,128.9c4.8-4.6,10.9-7.2,18.8-6.4c10.2,1.1,20.7,5.5,30.7,8.2c6.3,1.7,12.7,3.5,19,5.2c-15.9,4.2-31.4,16.1-42.9,26.9
	c-6.1,5.7-21.8,20.7-24.2,33.4c-8.1-3.4-15-9.1-15.4-19.8C64.9,158.9,69.5,141.7,79.4,128.9z M9.8,253.7c-0.6-17.7,4-34.7,13.9-47.6
	c4.8-4.6,10.9-7.2,18.8-6.4c10.2,1.1,20.7,5.5,30.7,8.2c6.3,1.7,12.7,3.5,19,5.2c-15.9,4.2-31.4,16.1-42.9,26.9
	c-6.1,5.7-21.8,20.7-24.2,33.4C17.1,270.1,10.2,264.5,9.8,253.7z M149.3,311.2c-22.1-8.4-44.4-16.1-66.9-23.2
	c-13.8-4.4-27.5-6.9-41.5-9.9c-3-0.7-6.4-1.5-9.8-2.5c4.3-12.8,13.8-22.5,23.3-31.4c15.6-14.6,32.5-22.6,51.8-27.3
	c0.8,0.2,1.7,0.4,2.5,0.7c15.4,4.2,30.8,8.3,46.2,12.7c-1.3,11.4-2.7,22.4-1.6,34c1,10.1,3.1,20.1,5.2,30c1.4,6.9,3.4,16.5,7.6,23.1
	C160.4,315.4,154.9,313.3,149.3,311.2z M181.5,322.2c-0.7-0.2-1.4-0.3-2.1-0.6c-0.1-0.1-0.2-0.3-0.4-0.4
	c-11-7.9-13.2-21.9-15.9-35.2c-2.1-9.9-4-19.8-4.5-29.9c-0.4-8.2,0.5-16.4,0-24.6c5.8,1.7,11.7,3.4,17.5,5.1
	c11.2,3.4,23.3,6.1,33.8,11.6c3.6,1.9,7.1,4.2,10.7,6.2c-9.3,4.8-16.4,16.8-19.7,26.5c-4.7,13.6-6.6,32,0.1,45.3
	C194.3,325.8,187.3,323.8,181.5,322.2z M204.2,322.8c-1.8-12-1.7-24.3,1.5-36.1c1.9-7,4.7-13.9,9.1-19.5c2.6-3.4,5.5-5.5,8.7-7.2
	c-1.6,11.8-4,22.7-7.6,33.5c-1.5,1.7-3,3.6-4.2,5.5C207.5,305.7,204.5,314.3,204.2,322.8z M235.2,298.2
	c-4.3,9.8-12.5,20.1-21.2,25.2c-1.8,1-3.7,1.7-5.6,2.1c2.1-10.2,4.8-20,11.8-27.7c6.2-6.7,15.1-10.6,20.1-18.7
	C239.7,286.1,237.3,293.3,235.2,298.2z M237.2,244.9c-0.7-0.2-1.4-0.3-2.1-0.6c-0.1-0.1-0.2-0.3-0.4-0.4
	c-11-7.9-13.2-21.9-15.9-35.2c-2.1-9.9-4-19.8-4.5-29.9c-0.4-8.2,0.5-16.4,0-24.6c5.8,1.7,11.7,3.4,17.5,5.1
	c11.2,3.4,23.3,6.1,33.8,11.6c3.6,1.9,7.1,4.2,10.7,6.2c-9.3,4.8-16.4,16.8-19.7,26.5c-4.7,13.6-6.6,32,0.1,45.3
	C249.9,248.5,242.9,246.5,237.2,244.9z M259.8,245.5c-1.8-12-1.7-24.3,1.5-36.1c1.9-7,4.7-13.9,9.1-19.5c2.6-3.4,5.5-5.5,8.7-7.2
	c-1.6,11.8-4,22.7-7.6,33.5c-1.5,1.7-3,3.6-4.2,5.5C263.2,228.4,260.1,237.1,259.8,245.5z M290.8,221c-4.3,9.8-12.5,20.1-21.2,25.2
	c-1.8,1-3.7,1.7-5.6,2.1c2.1-10.2,4.8-20,11.8-27.7c6.2-6.7,15.1-10.6,20.1-18.7C295.4,208.8,293,216,290.8,221z M295.2,192.3
	c-0.4,0.8-0.7,1.7-1.1,2.5c-0.3,0.6-0.6,1.2-0.9,1.8c-4.1,4.4-9,8.1-13.7,12.1c2.9-9.2,4.3-19.1,4.1-27.8c2.9,1.3,5.8,2.9,8.2,5.3
	C293.5,187.9,294.6,189.9,295.2,192.3z M294.5,167c-0.7-0.2-1.4-0.3-2.1-0.6c-0.1-0.1-0.2-0.3-0.4-0.4c-11-7.9-13.2-21.9-15.9-35.2
	c-2.1-9.9-4-19.8-4.5-29.9c-0.4-8.2,0.5-16.4,0-24.6c5.8,1.7,11.7,3.4,17.5,5.1c11.2,3.4,23.3,6.1,33.8,11.6
	c3.6,1.9,7.1,4.2,10.7,6.2c-9.3,4.8-16.4,16.8-19.7,26.5c-4.7,13.6-6.6,32,0.1,45.3C307.3,170.6,300.3,168.6,294.5,167z
	 M317.2,167.7c-1.8-12-1.7-24.3,1.5-36.1c1.9-7,4.7-13.9,9.1-19.5c2.6-3.4,5.5-5.5,8.7-7.2c-1.6,11.8-4,22.7-7.6,33.5
	c-1.5,1.7-3,3.6-4.2,5.5C320.5,150.5,317.5,159.2,317.2,167.7z M348.2,143.2c-4.3,9.8-12.5,20.1-21.2,25.2c-1.8,1-3.7,1.7-5.6,2.1
	c2.1-10.2,4.8-20,11.8-27.7c6.2-6.7,15.1-10.6,20.1-18.7C352.7,131,350.3,138.1,348.2,143.2z"/>
</svg>
