<?xml version="1.0" encoding="utf-8"?>
<!-- Generator: Adobe Illustrator 22.1.0, SVG Export Plug-In . SVG Version: 6.00 Build 0)  -->
<svg version="1.1" id="Layer_1" xmlns="http://www.w3.org/2000/svg" xmlns:xlink="http://www.w3.org/1999/xlink" x="0px" y="0px"
	 viewBox="0 0 492 492" style="enable-background:new 0 0 492 492;" xml:space="preserve">
<style type="text/css">
	.st0{fill:#FFFFFF;}
	.st1{enable-background:new    ;}
	.st2{fill:#F37421;}
</style>
<path class="st0" d="M416.5,477.5c-18.8,0-37.6-0.1-56.3,0.1c-3.2,0-4.2-0.9-4-4.1c0.2-3.7,0-7.4,0.1-11.1c0.1-9,7.5-16.4,16.5-16.5
	c10.8-0.1,21.6-0.1,32.4,0.1c3,0.1,3.8-1.2,4.1-3.7c1.3-13.2,2.6-26.4,4-39.6c1.3-12.2,3-24.4,4.3-36.6c1.1-10.4,2.5-20.8,2.7-31.2
	c0.3-13.9-10-24.8-24-24c-7.4,0.4-14.7,1.2-22.1,1.6c-7.2,0.4-14.3-0.4-21.2-3c-2.8-1.1-2.9-2.6-1.2-5.4c1.6-2.5,3.8-5.1,4.2-7.9
	c1.3-8.5-5.5-14.1-14-11.8c-5.8,1.6-11.4,3.7-17,5.7c-6.9,2.4-13.9,2.3-21,1c-1.1-0.2-2.5-1.3-2.7-2.2c-0.2-0.9,0.8-2.3,1.6-3.1
	c1.1-1,2.5-1.7,3.7-2.6c1.8-1.3,3.1-3.1,1.5-4.9c-1.1-1.3-3.5-2.7-5-2.4c-6.1,1.3-12.2,3.1-18.2,5c-17.2,5.4-34.2,3.9-50.9-1.9
	c-1.5-0.5-3.3-2.3-3.4-3.7c-0.3-2.4,2.1-2.8,4-3.3c2.5-0.7,5.2-1.3,7.3-2.7c1.5-0.9,3.3-3.1,3.2-4.6s-2.2-3.5-3.9-4.1
	c-6.2-2.3-12.6-1.9-19-0.6c-20.2,3.9-39.9,2.5-58.8-6.2c-3.5-1.6-6.9-3.8-10.1-6c-1.1-0.8-2.2-3-1.8-4c0.5-1.2,2.5-2.4,3.9-2.4
	c7.7-0.1,14.9-1.7,21.5-5.7c1-0.6,2.3-1.2,2.8-2.2c0.7-1.6,1.4-3.6,0.9-5c-0.4-1.1-2.8-2.1-4.2-2c-3.9,0.3-7.7,1.3-11.6,2
	c-20.3,3.6-38.9-0.8-56.2-11.7c-2.6-1.6-5.2-3.3-7.4-5.4c-1.3-1.3-2.5-3.5-2.5-5.2c0.1-2.3,2.2-3.4,4.7-3.6c5.2-0.5,10.4-1,15.5-2
	c2.3-0.5,4.7-1.9,6.6-3.4c0.9-0.8,1.5-3,1.1-4.2c-0.3-1-2.3-1.9-3.5-2c-3.1-0.1-6.3,0.4-9.4,0.7c-22.6,1.7-42.6-4.8-60.3-18.8
	c-7.2-5.7-13-12.6-17.7-20.4c-0.6-1.1-0.9-3-0.4-3.9c0.5-0.8,2.5-1.2,3.7-1c4.4,0.8,8.7,1.8,13,2.9c2.3,0.6,4.1,0.2,5.2-2
	c1.1-2.3-0.3-3.7-1.8-5c-10.2-8.2-21.9-12.3-35-12.8c-0.8,0-1.6,0.2-2.3-0.1c-1.2-0.5-3.3-1.3-3.3-2.1c-0.1-1.3,0.9-3.3,1.9-3.8
	c6.6-3,13.2-6.2,20.2-8.5c18.1-5.8,36.3-5.2,54.3,0.3c5.5,1.7,11,3.3,16.5,5c2.4,0.7,4.8,0.8,6-1.6s0-4.4-2.1-5.9
	c-1.6-1.1-3.1-2.4-4.5-3.7c-3.2-2.9-3-4.3,1.1-6.1c4.9-2.1,9.8-4.1,14.9-5.9c17-5.9,34.7-7.9,52.5-6.3c13.4,1.2,26.6,4.2,39.8,6.7
	c6.1,1.1,12,2.1,17.9-0.4c6.3-2.7,7.3-9.4,1.6-13.2c-3.3-2.2-7.2-3.6-11-4.9c-4.1-1.4-8.4-2.1-12.6-3.3c-1.1-0.3-1.9-1.4-2.9-2.2
	c0.8-0.9,1.5-2.3,2.5-2.6c8.3-1.9,16.5-4.1,24.9-5.2c19.2-2.5,36.9,2.5,53.6,11.9c4.5,2.5,9.7,3.9,14.6,5.3c4.3,1.3,6.9,0.1,8.9-2.9
	c2.2-3.3,0.7-6-1.3-8.6c-4.1-5.5-4.1-5.8,2.6-6.7c8.3-1.1,16.2,1.2,23.8,4.3c6.8,2.8,13.5,6.1,20.4,8.8c2.8,1.1,5.9,1.5,8.9,1.5
	c6.6,0.1,10.4-5.3,8.3-11.5c-1.3-3.7-3.1-7.2-4.4-10.9c-1.4-4-0.5-5.4,3.7-5.7c18.8-1.4,35.8,3,50.7,15c5.9,4.7,12.3,8.9,19.8,10.3
	c5,0.9,10.2,0.9,15.2,0.6c4-0.2,5.4,0.3,5.2,4.4c-0.5,7.5-1.3,14.9-2.2,22.4c-0.9,8.1-2,16.2-3,24.2c-1.2,9.8-2.6,19.6-3.7,29.4
	c-0.9,8-1.8,16-2.2,24c-0.8,14.8-0.7,29.6-2.2,44.4c-1.8,17.8-5,35.5-7.4,53.2c-1,7-1.5,14-2.2,21.1c-1,9.7-2.1,19.4-3.1,29.2
	c-0.7,7.1-1.4,14.3-2.2,21.4c-1,9.7-2.1,19.4-3.1,29.2c-1,9.2-1.9,18.4-2.8,27.6c-1,9.6-2.1,19.2-3.1,28.8c-0.2,2.1-0.5,4.1-0.6,6.2
	c-0.2,2.3,1.5,2,2.9,2c9,0,17.9,0,26.9,0c11.5,0,18.5,7,18.5,18.6c0,3.2-0.2,6.3,0.1,9.5c0.2,3-1,3.7-3.8,3.6
	C454.3,477.4,435.4,477.5,416.5,477.5z"/>
<path class="st0" d="M469.2,54.9c-0.4,3.7-0.5,6.3-0.9,8.9c-1,6.5-9.2,11.1-15.4,8.6c-2.1-0.8-3.2-2.2-3.1-4.5
	c0.5-8.7,1.4-17.3,5.1-25.3c0.4-1,1-1.9,1.7-2.8c3.2-3.9,9-3.1,10.3,1.7S468.6,51.2,469.2,54.9z"/>
<g class="st1">
	<path class="st2" d="M287.2,223.6h-17.5v-66c-6.4,6-13.9,10.4-22.6,13.3V155c4.6-1.5,9.5-4.3,14.9-8.5c5.4-4.2,9-9,11-14.6h14.2
		V223.6z"/>
	<path class="st2" d="M343,131.9c8.8,0,15.8,3.2,20.7,9.5c5.9,7.5,8.9,19.9,8.9,37.2c0,17.3-3,29.7-9,37.3
		c-4.9,6.2-11.8,9.3-20.7,9.3c-8.9,0-16.1-3.4-21.5-10.2c-5.4-6.8-8.2-19-8.2-36.5c0-17.2,3-29.6,9-37.1
		C327.2,135,334.1,131.9,343,131.9z M343,146.4c-2.1,0-4,0.7-5.7,2s-2.9,3.8-3.9,7.3c-1.2,4.5-1.8,12.1-1.8,22.9s0.5,18.1,1.6,22.1
		c1.1,4,2.4,6.7,4.1,8c1.6,1.3,3.5,2,5.6,2s4-0.7,5.7-2c1.7-1.3,2.9-3.8,3.9-7.3c1.2-4.5,1.8-12.1,1.8-22.8s-0.5-18.1-1.6-22.1
		c-1.1-4-2.4-6.7-4.1-8S345.1,146.4,343,146.4z"/>
</g>
</svg>
